G04 ---------------------------- Layer name :TOP LAYER*
G04 EasyEDA v5.8.22, Thu, 20 Dec 2018 20:30:22 GMT*
G04 f422fc89d8fd4efca302d5ffe9b637f2*
G04 Gerber Generator version 0.2*
G04 Scale: 100 percent, Rotated: No, Reflected: No *
G04 Dimensions in millimeters *
G04 leading zeros omitted , absolute positions ,3 integer and 3 decimal *
%FSLAX33Y33*%
%MOMM*%
G90*
G71D02*

%ADD10C,0.254000*%
%ADD11C,0.210007*%
%ADD12C,0.610006*%
%ADD13C,0.619760*%
%ADD14R,1.295400X1.498600*%
%ADD15R,1.574800X1.574800*%
%ADD16C,1.574800*%
%ADD17R,2.032000X2.032000*%
%ADD18C,2.032000*%
%ADD19R,1.699260X1.699260*%
%ADD20C,1.699260*%
%ADD21R,1.498600X1.295400*%
%ADD22C,3.401060*%
%ADD23C,3.898900*%
%ADD24C,1.879600*%

%LPD*%
G54D11*
G01X72859Y39370D02*
G01X71277Y40952D01*
G01X54681Y40952D01*
G01X53340Y39611D01*
G01X53340Y39057D01*
G01X52560Y38277D01*
G01X48082Y38277D01*
G01X46990Y39370D01*
G01X73461Y94932D02*
G01X73873Y95346D01*
G01X99529Y95346D01*
G01X73461Y94932D02*
G01X60629Y94932D01*
G01X58369Y97193D01*
G01X47805Y97193D01*
G01X47805Y97193D02*
G01X42605Y97193D01*
G01X42395Y96982D01*
G01X22118Y96982D01*
G01X21904Y97193D01*
G01X47805Y97193D02*
G01X47805Y97393D01*
G01X19522Y39370D02*
G01X20594Y40444D01*
G01X42405Y40444D01*
G01X43180Y39667D01*
G01X43180Y38986D01*
G01X43860Y38305D01*
G01X45925Y38305D01*
G01X46990Y39370D01*
G01X99529Y39370D02*
G01X98445Y40454D01*
G01X89961Y40454D01*
G01X87810Y38305D01*
G01X82047Y38305D01*
G01X81897Y38153D01*
G01X81414Y38153D01*
G01X81262Y38305D01*
G01X73924Y38305D01*
G01X72859Y39370D01*
G01X70319Y44279D02*
G01X69656Y43616D01*
G01X50060Y43616D01*
G01X49933Y43741D01*
G01X96989Y92710D02*
G01X94851Y94848D01*
G01X74201Y94848D01*
G01X73276Y93924D01*
G01X70319Y93924D01*
G01X51960Y95542D02*
G01X51960Y96492D01*
G01X51643Y96809D01*
G01X42763Y96809D01*
G01X42552Y96598D01*
G01X20871Y96598D01*
G01X16982Y92710D01*
G01X44450Y39370D02*
G01X42994Y40825D01*
G01X18437Y40825D01*
G01X16982Y39370D01*
G01X51960Y95542D02*
G01X50053Y95542D01*
G01X47459Y92951D01*
G01X47459Y92392D01*
G01X46680Y91610D01*
G01X44752Y91610D01*
G01X43649Y92710D01*
G01X70319Y93924D02*
G01X59235Y93924D01*
G01X57617Y95542D01*
G01X51960Y95542D01*
G01X96989Y49443D02*
G01X91826Y44279D01*
G01X70319Y44279D01*
G01X70319Y92710D02*
G01X70319Y93924D01*
G01X115391Y48291D02*
G01X98141Y48291D01*
G01X96989Y49443D01*
G01X128272Y54607D02*
G01X128272Y53682D01*
G01X128272Y53682D02*
G01X127932Y53682D01*
G01X126659Y52410D01*
G01X124858Y52410D01*
G01X124498Y52771D01*
G01X124498Y53281D01*
G01X41653Y41508D02*
G01X16581Y41508D01*
G01X14442Y39370D01*
G01X42153Y97563D02*
G01X43361Y98771D01*
G01X64648Y98766D01*
G01X67779Y95628D01*
G01X14442Y92710D02*
G01X19540Y97807D01*
G01X41907Y97807D01*
G01X42153Y97563D01*
G01X94449Y39370D02*
G01X92974Y37894D01*
G01X82179Y37894D01*
G01X82054Y37772D01*
G01X81254Y37772D01*
G01X81132Y37894D01*
G01X69255Y37894D01*
G01X67779Y39370D01*
G01X128272Y51142D02*
G01X128054Y51142D01*
G01X115168Y38260D01*
G01X95559Y38260D01*
G01X94449Y39370D01*
G01X128272Y52067D02*
G01X128272Y51142D01*
G01X9933Y62717D02*
G01X85143Y62717D01*
G01X86840Y64414D01*
G01X89954Y64414D01*
G01X92847Y67307D01*
G01X103078Y67307D01*
G01X104142Y67307D02*
G01X103078Y67307D01*
G01X104140Y72390D02*
G01X84551Y72390D01*
G01X82346Y70185D01*
G01X71455Y70185D01*
G01X8841Y64622D02*
G01X8989Y64622D01*
G01X10513Y63098D01*
G01X84985Y63098D01*
G01X86682Y64795D01*
G01X89794Y64795D01*
G01X93370Y68371D01*
G01X105618Y68371D01*
G01X106682Y67307D01*
G01X67310Y81280D02*
G01X69852Y78737D01*
G01X69852Y72387D01*
G01X74762Y118107D02*
G01X74762Y117922D01*
G01X75638Y117045D01*
G01X77378Y117045D01*
G01X79502Y119169D01*
G01X96299Y119169D01*
G01X96359Y119108D01*
G01X96359Y117924D01*
G01X97236Y117045D01*
G01X112387Y117045D01*
G01X73837Y118107D02*
G01X74762Y118107D01*
G01X58420Y89979D02*
G01X62141Y86258D01*
G01X88021Y86258D01*
G01X100413Y73865D01*
G01X106748Y73865D01*
G01X108658Y71955D01*
G01X108658Y61668D01*
G01X106680Y59690D01*
G01X94985Y77332D02*
G01X92555Y77332D01*
G01X91577Y78310D01*
G01X91577Y78884D01*
G01X85366Y85095D01*
G01X32580Y85095D01*
G01X106680Y57150D02*
G01X105615Y58214D01*
G01X99014Y58214D01*
G01X95255Y61970D01*
G01X65239Y39370D02*
G01X63764Y37894D01*
G01X40845Y37894D01*
G01X39370Y39370D01*
G01X89662Y43347D02*
G01X89240Y42928D01*
G01X65239Y42928D01*
G01X119377Y43347D02*
G01X89662Y43347D01*
G01X65239Y92710D02*
G01X59908Y92710D01*
G01X57495Y95123D01*
G01X50733Y95123D01*
G01X50553Y94940D01*
G01X89662Y43350D02*
G01X89662Y43347D01*
G01X91010Y86880D02*
G01X65021Y86880D01*
G01X11902Y39370D02*
G01X13012Y38260D01*
G01X38257Y38260D01*
G01X39370Y39370D01*
G01X11902Y92710D02*
G01X13004Y91607D01*
G01X37467Y91607D01*
G01X38569Y92710D01*
G01X74988Y41765D02*
G01X51925Y41765D01*
G01X49530Y39370D01*
G01X49530Y39370D02*
G01X45300Y43599D01*
G01X22062Y43599D01*
G01X76410Y96662D02*
G01X101991Y96662D01*
G01X102069Y96583D01*
G01X26299Y99199D02*
G01X73873Y99199D01*
G01X76410Y96662D01*
G01X81655Y38737D02*
G01X81655Y39537D01*
G01X83004Y40888D01*
G01X100550Y40888D01*
G01X102069Y39370D01*
G01X75399Y92710D02*
G01X74274Y91584D01*
G01X60492Y91584D01*
G01X57337Y94739D01*
G01X51241Y94739D01*
G01X49212Y92710D01*
G01X48729Y92710D01*
G01X77939Y39370D02*
G01X75973Y41335D01*
G01X75382Y41335D01*
G01X75229Y41181D01*
G01X74747Y41181D01*
G01X74592Y41335D01*
G01X54035Y41335D01*
G01X54035Y41335D01*
G01X52070Y39370D01*
G01X104609Y93792D02*
G01X105031Y94213D01*
G01X112618Y94213D01*
G01X129717Y77114D01*
G01X129717Y73256D01*
G01X128503Y72042D01*
G01X128272Y72042D01*
G01X104609Y92710D02*
G01X104609Y93792D01*
G01X104609Y93792D02*
G01X99047Y93792D01*
G01X98054Y92798D01*
G01X98054Y92102D01*
G01X97596Y91645D01*
G01X96382Y91645D01*
G01X95552Y92476D01*
G01X95552Y93311D01*
G01X94396Y94467D01*
G01X79697Y94467D01*
G01X77939Y92710D01*
G01X49895Y42943D02*
G01X48714Y44124D01*
G01X25938Y44124D01*
G01X25867Y44196D01*
G01X51269Y96126D02*
G01X28018Y96126D01*
G01X24602Y92710D01*
G01X104089Y41653D02*
G01X104866Y41653D01*
G01X105283Y41236D01*
G01X104089Y42237D02*
G01X104089Y41653D01*
G01X77939Y39370D02*
G01X80223Y41653D01*
G01X104089Y41653D01*
G01X51269Y92710D02*
G01X52847Y94287D01*
G01X57249Y94287D01*
G01X62387Y89148D01*
G01X62671Y89148D01*
G01X62778Y89042D01*
G01X78369Y89042D01*
G01X79075Y89748D01*
G01X79075Y91577D01*
G01X77939Y92710D01*
G01X128272Y71117D02*
G01X128272Y72042D01*
G01X74795Y33995D02*
G01X71516Y33995D01*
G01X69049Y36459D01*
G01X69049Y37066D01*
G01X67812Y38305D01*
G01X67160Y38305D01*
G01X66509Y38955D01*
G01X66509Y39667D01*
G01X65608Y40571D01*
G01X55811Y40571D01*
G01X54610Y39370D01*
G01X48600Y44706D02*
G01X48488Y44592D01*
G01X27254Y44592D01*
G01X27142Y44706D01*
G01X107149Y92710D02*
G01X105879Y91440D01*
G01X99273Y91440D01*
G01X98069Y90236D01*
G01X98069Y89743D01*
G01X97431Y89105D01*
G01X88785Y89105D01*
G01X84071Y93819D01*
G01X82072Y93819D01*
G01X80962Y92710D01*
G01X80479Y92710D01*
G01X80479Y39370D02*
G01X82379Y41269D01*
G01X104427Y41269D01*
G01X106326Y39370D01*
G01X107149Y39370D01*
G01X53809Y92710D02*
G01X55006Y93903D01*
G01X56769Y93903D01*
G01X61907Y88765D01*
G01X62514Y88765D01*
G01X62641Y88638D01*
G01X80479Y88638D01*
G01X81610Y89768D01*
G01X81610Y91579D01*
G01X80479Y92710D01*
G01X27142Y92710D02*
G01X28679Y94246D01*
G01X39207Y94246D01*
G01X40045Y93408D01*
G01X40045Y92207D01*
G01X40881Y91371D01*
G01X41470Y91371D01*
G01X42382Y90462D01*
G01X42382Y89761D01*
G01X43042Y89098D01*
G01X46796Y89098D01*
G01X47665Y89969D01*
G01X47665Y90777D01*
G01X48381Y91490D01*
G01X52593Y91490D01*
G01X53809Y92710D01*
G01X128272Y74582D02*
G01X128503Y74582D01*
G01X129331Y75410D01*
G01X129331Y76939D01*
G01X112483Y93786D01*
G01X108226Y93786D01*
G01X107149Y92710D01*
G01X128272Y73657D02*
G01X128272Y74582D01*
G01X67312Y45717D02*
G01X65592Y43997D01*
G01X51252Y43997D01*
G01X49530Y45720D01*
G01X90172Y78737D02*
G01X85394Y83515D01*
G01X74930Y83515D01*
G01X49530Y45720D02*
G01X48260Y46990D01*
G01X33020Y46990D01*
G01X31750Y45720D01*
G01X31750Y45720D02*
G01X30482Y46987D01*
G01X13972Y46987D01*
G01X12702Y45717D01*
G01X56349Y19171D02*
G01X30827Y19171D01*
G01X29682Y20320D01*
G01X56349Y20320D02*
G01X56349Y19171D01*
G01X56349Y19171D02*
G01X64645Y19171D01*
G01X67310Y16510D01*
G01X67310Y16510D02*
G01X79209Y16510D01*
G01X83019Y20320D01*
G01X67310Y16510D02*
G01X67310Y11430D01*
G01X83019Y101600D02*
G01X81841Y102778D01*
G01X57531Y102778D01*
G01X56349Y101600D01*
G01X77302Y118107D02*
G01X78747Y119550D01*
G01X100911Y119550D01*
G01X102123Y118341D01*
G01X102123Y118110D01*
G01X93980Y11430D02*
G01X93055Y11430D01*
G01X92430Y12979D02*
G01X93055Y12354D01*
G01X93055Y11430D01*
G01X83019Y20320D02*
G01X90360Y12979D01*
G01X92430Y12979D01*
G01X111960Y18049D02*
G01X97500Y18049D01*
G01X92430Y12979D01*
G01X111960Y18049D02*
G01X109689Y20320D01*
G01X121714Y16715D02*
G01X113294Y16715D01*
G01X111960Y18049D01*
G01X90170Y52070D02*
G01X88966Y50868D01*
G01X80761Y50868D01*
G01X79560Y52067D01*
G01X73662Y52067D01*
G01X67312Y45717D01*
G01X115775Y55880D02*
G01X115775Y55613D01*
G01X111018Y50855D01*
G01X91384Y50855D01*
G01X90170Y52070D01*
G01X116840Y55880D02*
G01X115775Y55880D01*
G01X14897Y11430D02*
G01X14897Y11661D01*
G01X15692Y12456D01*
G01X18219Y12456D01*
G01X19090Y13327D01*
G01X19090Y14584D01*
G01X19984Y15478D01*
G01X24841Y15478D01*
G01X29682Y20320D01*
G01X13972Y11430D02*
G01X14897Y11430D01*
G01X57152Y83817D02*
G01X58420Y82550D01*
G01X73964Y82550D01*
G01X74930Y83515D01*
G01X74930Y83515D02*
G01X74930Y83820D01*
G01X103047Y118110D02*
G01X102123Y118110D01*
G01X76377Y118107D02*
G01X77302Y118107D01*
G01X75915Y118107D02*
G01X76377Y118107D01*
G01X75915Y118107D02*
G01X75453Y118107D01*
G01X39372Y83817D02*
G01X40642Y82547D01*
G01X55882Y82547D01*
G01X57152Y83817D01*
G01X49245Y118110D02*
G01X50302Y119166D01*
G01X74625Y119166D01*
G01X75453Y118338D01*
G01X75453Y118107D01*
G01X49245Y118110D02*
G01X48783Y118110D01*
G01X49707Y118110D02*
G01X49245Y118110D01*
G01X20322Y83817D02*
G01X21592Y82547D01*
G01X38102Y82547D01*
G01X39372Y83817D01*
G01X23040Y118110D02*
G01X23964Y118110D01*
G01X23964Y118110D02*
G01X25024Y119169D01*
G01X47955Y119169D01*
G01X48783Y118341D01*
G01X48783Y118110D01*
G01X90170Y52070D02*
G01X90175Y52075D01*
G01X90175Y60957D01*
G01X118112Y123187D02*
G01X116819Y123187D01*
G01X116819Y123187D02*
G01X111742Y118110D01*
G01X103047Y118110D01*
G01X123190Y15240D02*
G01X122125Y15240D01*
G01X122125Y15240D02*
G01X122125Y16304D01*
G01X121714Y16715D01*
G01X121714Y16715D02*
G01X121714Y17368D01*
G01X122125Y17780D01*
G01X123190Y17780D02*
G01X122125Y17780D01*
G01X119941Y111757D02*
G01X118877Y111757D01*
G01X109689Y101600D02*
G01X118877Y110787D01*
G01X118877Y111757D01*
G01X127000Y17780D02*
G01X123190Y17780D01*
G01X29682Y101600D02*
G01X30833Y100449D01*
G01X55199Y100449D01*
G01X56349Y101600D01*
G01X72097Y63687D02*
G01X72303Y63482D01*
G01X84825Y63482D01*
G01X86522Y65178D01*
G01X89636Y65178D01*
G01X95768Y71310D01*
G01X105600Y71310D01*
G01X106680Y72390D01*
G01X106680Y69850D02*
G01X107863Y68663D01*
G01X107863Y66941D01*
G01X107119Y66197D01*
G01X92471Y66197D01*
G01X90236Y63962D01*
G01X86928Y63962D01*
G01X85300Y62334D01*
G01X69471Y62334D01*
G01X66878Y59740D01*
G01X61810Y59740D01*
G01X52359Y50286D01*
G01X52359Y46390D01*
G01X103075Y74930D02*
G01X100622Y77383D01*
G01X98259Y77383D01*
G01X104140Y74930D02*
G01X103075Y74930D01*
G01X28196Y47614D02*
G01X30459Y47614D01*
G01X30952Y47122D01*
G01X32217Y47122D01*
G01X34528Y49433D01*
G01X46977Y49433D01*
G01X109689Y39370D02*
G01X106626Y42433D01*
G01X104716Y42433D01*
G01X104716Y42433D01*
G01X104330Y42819D01*
G01X103847Y42819D01*
G01X103284Y42257D01*
G01X82633Y42257D01*
G01X47198Y88569D02*
G01X41155Y88569D01*
G01X39662Y90060D01*
G01X39662Y93182D01*
G01X39011Y93835D01*
G01X30807Y93835D01*
G01X29682Y92710D01*
G01X58178Y90561D02*
G01X57838Y90220D01*
G01X57838Y89890D01*
G01X56517Y88569D01*
G01X47198Y88569D01*
G01X58178Y90561D02*
G01X59438Y90561D01*
G01X61615Y88381D01*
G01X62354Y88381D01*
G01X62484Y88254D01*
G01X83665Y88254D01*
G01X84117Y88706D01*
G01X58178Y90561D02*
G01X58178Y90881D01*
G01X56349Y92710D01*
G01X83019Y92710D02*
G01X84117Y91612D01*
G01X84117Y88706D01*
G01X106011Y88706D02*
G01X84117Y88706D01*
G01X128272Y76197D02*
G01X128272Y77122D01*
G01X128272Y77122D02*
G01X116687Y88706D01*
G01X106011Y88706D01*
G01X109689Y92710D02*
G01X108554Y91574D01*
G01X106934Y91574D01*
G01X106011Y90652D01*
G01X106011Y88706D01*
G01X71714Y114348D02*
G01X71714Y114452D01*
G01X71714Y114452D02*
G01X69296Y114452D01*
G01X68412Y115336D01*
G01X68412Y115567D01*
G01X93233Y115570D02*
G01X92115Y114452D01*
G01X71714Y114452D01*
G01X92712Y78737D02*
G01X85773Y85676D01*
G01X64508Y85676D01*
G01X101254Y22887D02*
G01X100853Y23291D01*
G01X99679Y23291D01*
G01X102870Y13970D02*
G01X101945Y13970D01*
G01X76123Y13970D02*
G01X79692Y10403D01*
G01X94843Y10403D01*
G01X94904Y10464D01*
G01X94904Y11709D01*
G01X95651Y12456D01*
G01X100662Y12456D01*
G01X101945Y13738D01*
G01X101945Y13970D01*
G01X76123Y13970D02*
G01X75275Y13970D01*
G01X76200Y13970D02*
G01X76123Y13970D01*
G01X49425Y13970D02*
G01X53096Y10299D01*
G01X67990Y10299D01*
G01X68234Y10546D01*
G01X68234Y11739D01*
G01X68950Y12456D01*
G01X73992Y12456D01*
G01X75275Y13738D01*
G01X75275Y13970D01*
G01X49530Y13970D02*
G01X49425Y13970D01*
G01X49260Y13970D02*
G01X48605Y13970D01*
G01X49260Y13970D02*
G01X49425Y13970D01*
G01X22862Y13970D02*
G01X23787Y13970D01*
G01X23787Y13970D02*
G01X24813Y12943D01*
G01X47810Y12943D01*
G01X48605Y13738D01*
G01X48605Y13970D01*
G01X67487Y115567D02*
G01X68412Y115567D01*
G01X94157Y115570D02*
G01X93233Y115570D01*
G01X67487Y115567D02*
G01X67370Y115567D01*
G01X67025Y115567D02*
G01X66563Y115567D01*
G01X67025Y115567D02*
G01X67370Y115567D01*
G01X40355Y115570D02*
G01X41381Y116596D01*
G01X65534Y116596D01*
G01X66563Y115567D01*
G01X40355Y115570D02*
G01X39893Y115570D01*
G01X40817Y115570D02*
G01X40355Y115570D01*
G01X14150Y115570D02*
G01X15074Y115570D01*
G01X15074Y115570D02*
G01X15074Y115801D01*
G01X15869Y116596D01*
G01X38867Y116596D01*
G01X39893Y115570D01*
G01X92710Y52070D02*
G01X92715Y52075D01*
G01X92715Y60957D01*
G01X102870Y13970D02*
G01X103794Y13970D01*
G01X120650Y15237D02*
G01X105064Y15237D01*
G01X103794Y13970D01*
G01X133352Y27861D02*
G01X130731Y27861D01*
G01X120650Y17780D01*
G01X106680Y74930D02*
G01X109169Y72440D01*
G01X109169Y61922D01*
G01X114145Y56944D01*
G01X117792Y56944D01*
G01X120119Y54617D01*
G01X120119Y54381D01*
G01X105204Y69850D02*
G01X105204Y70116D01*
G01X106006Y70916D01*
G01X107134Y70916D01*
G01X108275Y69776D01*
G01X108275Y64711D01*
G01X107078Y63512D01*
G01X88569Y63512D01*
G01X87322Y62265D01*
G01X86921Y62265D01*
G01X79992Y55333D01*
G01X75333Y55333D01*
G01X73337Y53337D01*
G01X73337Y52641D01*
G01X67685Y46987D01*
G01X63350Y46987D01*
G01X60952Y44589D01*
G01X54472Y44589D01*
G01X104140Y69850D02*
G01X105204Y69850D01*
G01X45374Y13970D02*
G01X45374Y14201D01*
G01X49507Y18333D01*
G01X58996Y18333D01*
G01X44450Y13970D02*
G01X45374Y13970D01*
G01X62113Y87800D02*
G01X105158Y87800D01*
G01X107746Y85211D01*
G01X112994Y113771D02*
G01X112814Y113593D01*
G01X48567Y113593D01*
G01X46822Y115338D01*
G01X46822Y115570D01*
G01X45897Y115570D02*
G01X46822Y115570D01*
G01X20154Y115570D02*
G01X20154Y115338D01*
G01X21691Y113804D01*
G01X27470Y113804D01*
G01X34041Y107233D01*
G01X92984Y107233D01*
G01X98259Y101958D01*
G01X98259Y101216D01*
G01X101003Y98473D01*
G01X105674Y98473D01*
G01X19230Y115570D02*
G01X20154Y115570D01*
G01X70319Y36830D02*
G01X72214Y34935D01*
G01X74754Y34935D01*
G01X75443Y34246D01*
G01X75443Y33350D01*
G01X74274Y32179D01*
G01X74274Y23987D01*
G01X77939Y20320D01*
G01X114300Y58420D02*
G01X111056Y61663D01*
G01X111056Y75013D01*
G01X113507Y77467D01*
G01X125732Y77467D01*
G01X125732Y51722D02*
G01X125006Y51722D01*
G01X124028Y52699D01*
G01X124028Y52928D01*
G01X117472Y59484D01*
G01X117472Y59484D01*
G01X114244Y59484D01*
G01X111437Y62290D01*
G01X111437Y72539D01*
G01X114033Y75135D01*
G01X114300Y75135D01*
G01X114300Y76200D02*
G01X114300Y75135D01*
G01X125732Y50797D02*
G01X125732Y51722D01*
G01X67312Y48257D02*
G01X67312Y48262D01*
G01X76200Y57150D01*
G01X83822Y45717D02*
G01X81282Y48257D01*
G01X74932Y48257D01*
G01X12702Y81277D02*
G01X11399Y82580D01*
G01X11399Y88851D01*
G01X49532Y81277D02*
G01X50660Y80149D01*
G01X63284Y80149D01*
G01X76202Y60960D02*
G01X75740Y60960D01*
G01X68724Y53944D01*
G01X68724Y52212D01*
G01X67312Y50797D01*
G01X57150Y50800D02*
G01X53334Y46984D01*
G01X53334Y46299D01*
G01X55910Y104063D02*
G01X48729Y104063D01*
G01X69682Y118107D02*
G01X69682Y117876D01*
G01X70896Y116662D01*
G01X92514Y116662D01*
G01X93962Y118110D01*
G01X94503Y118110D01*
G01X127000Y15240D02*
G01X123190Y11430D01*
G01X101600Y11430D01*
G01X133350Y17703D02*
G01X130886Y15240D01*
G01X127000Y15240D01*
G01X101600Y11430D02*
G01X100675Y11430D01*
G01X74930Y11430D02*
G01X75854Y11430D01*
G01X75854Y11430D02*
G01X77383Y9900D01*
G01X99377Y9900D01*
G01X100675Y11198D01*
G01X100675Y11430D01*
G01X74467Y11430D02*
G01X74930Y11430D01*
G01X74467Y11430D02*
G01X74005Y11430D01*
G01X47797Y11430D02*
G01X49316Y9911D01*
G01X72717Y9911D01*
G01X74005Y11198D01*
G01X74005Y11430D01*
G01X47797Y11430D02*
G01X47335Y11430D01*
G01X48260Y11430D02*
G01X47797Y11430D01*
G01X21592Y11430D02*
G01X22517Y11430D01*
G01X22517Y11430D02*
G01X23543Y12456D01*
G01X46540Y12456D01*
G01X47335Y11661D01*
G01X47335Y11430D01*
G01X68757Y118107D02*
G01X67833Y118107D01*
G01X67833Y118107D02*
G01X66809Y117083D01*
G01X42189Y117083D01*
G01X41163Y118110D01*
G01X69220Y118107D02*
G01X68757Y118107D01*
G01X69220Y118107D02*
G01X69682Y118107D01*
G01X95427Y118110D02*
G01X94503Y118110D01*
G01X16344Y118110D02*
G01X16344Y117878D01*
G01X17139Y117083D01*
G01X40137Y117083D01*
G01X41163Y118110D01*
G01X42087Y118110D02*
G01X41163Y118110D01*
G01X15420Y118110D02*
G01X16344Y118110D01*
G01X83822Y60960D02*
G01X84902Y60960D01*
G01X86791Y62847D01*
G01X63502Y57147D02*
G01X60957Y57147D01*
G01X57150Y53340D01*
G01X90782Y20320D02*
G01X89654Y21447D01*
G01X82420Y21447D01*
G01X81749Y20779D01*
G01X81749Y19941D01*
G01X80977Y19169D01*
G01X71470Y19169D01*
G01X70319Y20320D01*
G01X73662Y60957D02*
G01X68486Y55783D01*
G01X64866Y55783D01*
G01X63502Y57147D01*
G01X53342Y60957D02*
G01X52006Y59623D01*
G01X44518Y59623D01*
G01X43182Y60957D01*
G01X33020Y57150D02*
G01X27122Y57150D01*
G01X23312Y60960D01*
G01X22860Y60960D01*
G01X91909Y20320D02*
G01X93035Y20320D01*
G01X94449Y20320D02*
G01X93037Y20320D01*
G01X93035Y20320D01*
G01X96989Y20320D02*
G01X94449Y20320D01*
G01X67779Y20320D02*
G01X70319Y20320D01*
G01X91909Y20320D02*
G01X90782Y20320D01*
G01X65242Y20320D02*
G01X66367Y20320D01*
G01X67779Y20320D02*
G01X66370Y20320D01*
G01X66367Y20320D01*
G01X62986Y21447D02*
G01X64114Y20320D01*
G01X43649Y20320D02*
G01X44777Y21447D01*
G01X62986Y21447D01*
G01X65239Y27940D02*
G01X65239Y23700D01*
G01X62986Y21447D01*
G01X65242Y20320D02*
G01X64114Y20320D01*
G01X41109Y20320D02*
G01X43649Y20320D01*
G01X38572Y20320D02*
G01X39697Y20320D01*
G01X41109Y20320D02*
G01X39700Y20320D01*
G01X39697Y20320D01*
G01X16982Y20320D02*
G01X21973Y25311D01*
G01X35943Y25311D01*
G01X38569Y27940D01*
G01X14442Y20320D02*
G01X16982Y20320D01*
G01X11902Y20320D02*
G01X13027Y20320D01*
G01X14442Y20320D02*
G01X13030Y20320D01*
G01X13027Y20320D01*
G01X80010Y53340D02*
G01X74932Y53340D01*
G01X74932Y53337D01*
G01X83822Y53337D02*
G01X83820Y53340D01*
G01X80010Y53340D01*
G01X33020Y57150D02*
G01X36830Y53340D01*
G01X39370Y53340D01*
G01X55882Y57147D02*
G01X49532Y50800D01*
G01X49530Y50800D01*
G01X74930Y78740D02*
G01X77083Y80893D01*
G01X77083Y82903D01*
G01X70319Y101600D02*
G01X71556Y100363D01*
G01X76177Y100363D01*
G01X76387Y100573D01*
G01X77200Y100573D01*
G01X77411Y100363D01*
G01X91234Y100363D01*
G01X92471Y101600D01*
G01X92471Y101600D02*
G01X93035Y101600D01*
G01X91909Y101600D02*
G01X92471Y101600D01*
G01X38569Y109220D02*
G01X39801Y107988D01*
G01X64010Y107988D01*
G01X65239Y109220D01*
G01X46990Y64770D02*
G01X50800Y64770D01*
G01X50800Y64770D01*
G01X50800Y64770D02*
G01X54610Y64770D01*
G01X54612Y64767D01*
G01X31236Y64767D02*
G01X39372Y64767D01*
G01X39372Y64767D01*
G01X31236Y64767D02*
G01X31747Y64767D01*
G01X31750Y64770D01*
G01X27942Y64767D02*
G01X31236Y64767D01*
G01X67947Y64767D02*
G01X66921Y64767D01*
G01X66042Y64770D01*
G01X66040Y63500D01*
G01X60960Y63500D01*
G01X58418Y63496D01*
G01X58419Y64770D01*
G01X58420Y64770D01*
G01X67947Y64767D02*
G01X69852Y64767D01*
G01X69852Y64767D01*
G01X66042Y64767D02*
G01X67947Y64767D01*
G01X58420Y64770D02*
G01X54612Y64770D01*
G01X54612Y64767D01*
G01X87632Y69847D02*
G01X82550Y69847D01*
G01X77472Y64767D01*
G01X94449Y101600D02*
G01X93037Y101600D01*
G01X93035Y101600D01*
G01X96989Y101600D02*
G01X94449Y101600D01*
G01X67779Y101600D02*
G01X70319Y101600D01*
G01X65242Y101600D02*
G01X66367Y101600D01*
G01X67779Y101600D02*
G01X66370Y101600D01*
G01X66367Y101600D01*
G01X38572Y101600D02*
G01X39697Y101600D01*
G01X41109Y101600D02*
G01X39700Y101600D01*
G01X39697Y101600D01*
G01X43649Y101600D02*
G01X41109Y101600D01*
G01X16982Y101600D02*
G01X18110Y102727D01*
G01X36316Y102727D01*
G01X37444Y101600D01*
G01X14442Y101600D02*
G01X16982Y101600D01*
G01X38572Y101600D02*
G01X37444Y101600D01*
G01X11902Y101600D02*
G01X13027Y101600D01*
G01X14442Y101600D02*
G01X13030Y101600D01*
G01X13027Y101600D01*
G01X77472Y64767D02*
G01X73662Y64767D01*
G01X73660Y64770D01*
G01X69852Y64767D02*
G01X73657Y64767D01*
G01X73660Y64770D01*
G01X43182Y64767D02*
G01X46987Y64767D01*
G01X46990Y64770D01*
G01X39372Y64767D02*
G01X43182Y64767D01*
G01X43182Y64767D01*
G01X24132Y64767D02*
G01X27942Y64767D01*
G01X20320Y64770D02*
G01X24130Y64770D01*
G01X24132Y64767D01*
G01X16512Y64770D02*
G01X20320Y64770D01*
G01X20320Y64770D01*
G01X12700Y64770D02*
G01X16510Y64770D01*
G01X16512Y64770D01*
G01X16512Y64770D02*
G01X16512Y64767D01*
G01X39372Y81277D02*
G01X37574Y79481D01*
G01X36337Y79481D01*
G01X31752Y81277D02*
G01X36987Y81277D01*
G01X37322Y81615D01*
G01X102069Y20320D02*
G01X101828Y20320D01*
G01X98259Y23888D01*
G01X98259Y33020D01*
G01X94449Y36830D01*
G01X96989Y36830D02*
G01X100799Y33020D01*
G01X100799Y24168D01*
G01X104609Y20358D01*
G01X104609Y20320D01*
G01X65239Y36830D02*
G01X65239Y35765D01*
G01X72859Y20320D02*
G01X69049Y24130D01*
G01X69049Y31955D01*
G01X65239Y35765D01*
G01X72859Y36830D02*
G01X73400Y36830D01*
G01X76669Y33561D01*
G01X76669Y24130D01*
G01X80479Y20320D01*
G01X39370Y35560D02*
G01X43180Y33020D01*
G01X43180Y30480D01*
G01X42375Y30480D01*
G01X42379Y26997D01*
G01X42984Y26395D01*
G01X39370Y36830D02*
G01X39369Y35560D01*
G01X16982Y36830D02*
G01X19342Y34470D01*
G01X19456Y34470D01*
G01X29682Y27940D02*
G01X28394Y26652D01*
G01X26822Y26652D01*
G01X25872Y27602D01*
G01X25872Y33020D01*
G01X22062Y36830D01*
G01X91909Y91234D02*
G01X92176Y91234D01*
G01X93057Y92118D01*
G01X93057Y93350D01*
G01X91909Y90170D02*
G01X91909Y91234D01*
G01X109689Y109220D02*
G01X103339Y102870D01*
G01X103339Y100741D01*
G01X104775Y99306D01*
G01X80479Y90170D02*
G01X80479Y90711D01*
G01X79288Y91904D01*
G01X79288Y93121D01*
G01X80020Y93853D01*
G01X81252Y93853D01*
G01X76669Y99956D02*
G01X81544Y99956D01*
G01X84086Y97416D01*
G01X67779Y36830D02*
G01X71589Y33020D01*
G01X71589Y24130D01*
G01X75399Y20320D01*
G01X83019Y27940D02*
G01X81737Y26657D01*
G01X80159Y26657D01*
G01X79209Y27607D01*
G01X79209Y33020D01*
G01X75399Y36830D01*
G01X77939Y36830D02*
G01X80479Y34290D01*
G01X80479Y27940D01*
G01X52070Y36830D02*
G01X52070Y29682D01*
G01X53809Y27940D01*
G01X11902Y36830D02*
G01X11902Y35765D01*
G01X11902Y35765D02*
G01X15567Y32097D01*
G01X15567Y27012D01*
G01X15323Y26766D01*
G01X109689Y36830D02*
G01X102069Y29210D01*
G01X102069Y27940D01*
G01X57150Y36830D02*
G01X57150Y34980D01*
G01X53322Y34975D01*
G01X53324Y32265D01*
G01X55079Y30505D01*
G01X55079Y27571D01*
G01X54229Y26718D01*
G01X49951Y26718D01*
G01X48729Y27940D01*
G01X24602Y36830D02*
G01X27142Y34290D01*
G01X27142Y27940D01*
G01X125732Y54262D02*
G01X124625Y54262D01*
G01X118991Y59895D01*
G01X116232Y59895D01*
G01X115364Y60764D01*
G01X115364Y61567D01*
G01X114701Y62230D01*
G01X113967Y62230D01*
G01X111927Y64269D01*
G01X111927Y71287D01*
G01X114300Y73660D01*
G01X125732Y53337D02*
G01X125732Y54262D01*
G01X114300Y71120D02*
G01X112694Y69514D01*
G01X112694Y66139D01*
G01X114061Y64770D01*
G01X114701Y64770D01*
G01X115364Y64107D01*
G01X115364Y63304D01*
G01X116232Y62435D01*
G01X119174Y62435D01*
G01X124807Y56802D01*
G01X125732Y56802D01*
G01X125732Y55877D02*
G01X125732Y56802D01*
G01X125732Y58417D02*
G01X125732Y59342D01*
G01X114300Y68580D02*
G01X115570Y67310D01*
G01X117764Y67310D01*
G01X125732Y59342D01*
G01X114300Y66040D02*
G01X113113Y67226D01*
G01X113113Y69052D01*
G01X113911Y69847D01*
G01X125732Y69847D01*
G01X125732Y72387D02*
G01X114061Y72387D01*
G01X112311Y70637D01*
G01X112311Y65488D01*
G01X114300Y63500D01*
G01X114300Y55880D02*
G01X100479Y55880D01*
G01X94261Y62097D01*
G01X89573Y62097D01*
G01X88696Y61224D01*
G01X88696Y60957D01*
G01X87632Y60957D02*
G01X88696Y60957D01*
G54D10*
G01X109689Y39370D02*
G01X114299Y39370D01*
G01X132079Y86360D02*
G01X121920Y86360D01*
G01X118110Y86360D02*
G01X114300Y86360D01*
G01X114299Y87630D01*
G01X114300Y87630D02*
G01X114302Y88590D01*
G01X29682Y39370D02*
G01X35560Y39370D01*
G01X35560Y35560D02*
G01X35560Y31750D01*
G01X41910Y31750D01*
G01X44078Y31750D02*
G01X47659Y31750D01*
G01X51468Y35558D01*
G01X57149Y39370D02*
G01X60959Y39370D01*
G01X60959Y33020D02*
G01X57149Y33020D01*
G01X60959Y33020D01*
G01X60959Y34290D01*
G01X55219Y33467D02*
G01X56702Y33467D01*
G01X57149Y33020D01*
G01X132079Y86360D02*
G01X132079Y86360D01*
G01X132079Y86360D02*
G01X132079Y85090D01*
G54D14*
G01X93980Y11430D03*
G01X95250Y13970D03*
G01X96520Y11430D03*
G01X97790Y13970D03*
G01X99060Y11430D03*
G01X100330Y13970D03*
G01X101600Y11430D03*
G01X102870Y13970D03*
G54D15*
G01X104140Y74930D03*
G54D16*
G01X106679Y74930D03*
G54D17*
G01X133350Y12700D03*
G54D18*
G01X133349Y17704D03*
G54D19*
G01X67310Y53339D03*
G54D20*
G01X67311Y50798D03*
G01X67311Y48258D03*
G01X67311Y45718D03*
G01X74931Y45718D03*
G01X74931Y48258D03*
G01X74931Y50798D03*
G01X74931Y53338D03*
G54D15*
G01X87632Y78737D03*
G54D16*
G01X90171Y78738D03*
G01X92711Y78738D03*
G01X114299Y55880D03*
G54D15*
G01X116840Y55880D03*
G54D14*
G01X67310Y11430D03*
G01X68580Y13970D03*
G01X69850Y11430D03*
G01X71120Y13970D03*
G01X72390Y11430D03*
G01X73660Y13970D03*
G01X74930Y11430D03*
G01X76200Y13970D03*
G54D19*
G01X49529Y53340D03*
G54D20*
G01X49529Y50800D03*
G01X49529Y48260D03*
G01X49529Y45720D03*
G01X57149Y45720D03*
G01X57149Y48260D03*
G01X57149Y50800D03*
G01X57149Y53340D03*
G54D14*
G01X40640Y11430D03*
G01X41910Y13970D03*
G01X43180Y11430D03*
G01X44450Y13970D03*
G01X45720Y11430D03*
G01X46990Y13970D03*
G01X48260Y11430D03*
G01X49530Y13970D03*
G54D19*
G01X31749Y53340D03*
G54D20*
G01X31749Y50800D03*
G01X31749Y48260D03*
G01X31749Y45720D03*
G01X39369Y45720D03*
G01X39369Y48260D03*
G01X39369Y50800D03*
G01X39369Y53340D03*
G54D14*
G01X13972Y11430D03*
G01X15242Y13970D03*
G01X16512Y11430D03*
G01X17782Y13970D03*
G01X19052Y11430D03*
G01X20322Y13970D03*
G01X21592Y11430D03*
G01X22862Y13970D03*
G54D19*
G01X12700Y53339D03*
G54D20*
G01X12701Y50798D03*
G01X12701Y48258D03*
G01X12701Y45718D03*
G01X20321Y45718D03*
G01X20321Y48258D03*
G01X20321Y50798D03*
G01X20321Y53338D03*
G54D14*
G01X103047Y118110D03*
G01X101777Y115570D03*
G01X100507Y118110D03*
G01X99237Y115570D03*
G01X97967Y118110D03*
G01X96697Y115570D03*
G01X95427Y118110D03*
G01X94157Y115570D03*
G54D19*
G01X74929Y76200D03*
G54D20*
G01X74929Y78740D03*
G01X74929Y81280D03*
G01X74929Y83820D03*
G01X67309Y83820D03*
G01X67309Y81280D03*
G01X67309Y78740D03*
G01X67309Y76200D03*
G54D14*
G01X76377Y118107D03*
G01X75107Y115567D03*
G01X73837Y118107D03*
G01X72567Y115567D03*
G01X71297Y118107D03*
G01X70027Y115567D03*
G01X68757Y118107D03*
G01X67487Y115567D03*
G54D19*
G01X57150Y76199D03*
G54D20*
G01X57151Y78738D03*
G01X57151Y81278D03*
G01X57151Y83818D03*
G01X49531Y83818D03*
G01X49531Y81278D03*
G01X49531Y78738D03*
G01X49531Y76198D03*
G54D14*
G01X49707Y118110D03*
G01X48437Y115570D03*
G01X47167Y118110D03*
G01X45897Y115570D03*
G01X44627Y118110D03*
G01X43357Y115570D03*
G01X42087Y118110D03*
G01X40817Y115570D03*
G54D19*
G01X39370Y76199D03*
G54D20*
G01X39371Y78738D03*
G01X39371Y81278D03*
G01X39371Y83818D03*
G01X31751Y83818D03*
G01X31751Y81278D03*
G01X31751Y78738D03*
G01X31751Y76198D03*
G54D14*
G01X23040Y118110D03*
G01X21770Y115570D03*
G01X20500Y118110D03*
G01X19230Y115570D03*
G01X17960Y118110D03*
G01X16690Y115570D03*
G01X15420Y118110D03*
G01X14150Y115570D03*
G54D19*
G01X20320Y76199D03*
G54D20*
G01X20321Y78738D03*
G01X20321Y81278D03*
G01X20321Y83818D03*
G01X12701Y83818D03*
G01X12701Y81278D03*
G01X12701Y78738D03*
G01X12701Y76198D03*
G54D15*
G01X87632Y69847D03*
G54D16*
G01X90171Y69848D03*
G01X92711Y69848D03*
G54D15*
G01X87632Y60957D03*
G54D16*
G01X90173Y60957D03*
G01X92713Y60957D03*
G54D15*
G01X87630Y52070D03*
G54D16*
G01X90169Y52070D03*
G01X92709Y52070D03*
G01X117400Y114300D03*
G54D15*
G01X119941Y114300D03*
G54D16*
G01X117400Y111758D03*
G54D15*
G01X119941Y111757D03*
G54D16*
G01X120649Y17780D03*
G54D15*
G01X123190Y17780D03*
G54D16*
G01X120649Y15238D03*
G54D15*
G01X123190Y15240D03*
G54D19*
G01X91908Y20321D03*
G54D20*
G01X94449Y20320D03*
G01X96989Y20320D03*
G01X99529Y20320D03*
G01X102069Y20320D03*
G01X104609Y20320D03*
G01X107149Y20320D03*
G01X109689Y20320D03*
G01X109689Y27940D03*
G01X107149Y27940D03*
G01X104609Y27940D03*
G01X102069Y27940D03*
G01X99529Y27940D03*
G01X96989Y27940D03*
G01X94449Y27940D03*
G01X91909Y27940D03*
G54D19*
G01X65241Y20321D03*
G54D20*
G01X67780Y20320D03*
G01X70320Y20320D03*
G01X72860Y20320D03*
G01X75400Y20320D03*
G01X77940Y20320D03*
G01X80480Y20320D03*
G01X83020Y20320D03*
G01X83020Y27940D03*
G01X80480Y27940D03*
G01X77940Y27940D03*
G01X75400Y27940D03*
G01X72860Y27940D03*
G01X70320Y27940D03*
G01X67780Y27940D03*
G01X65240Y27940D03*
G54D15*
G01X104140Y72390D03*
G54D16*
G01X106679Y72390D03*
G54D19*
G01X38571Y20321D03*
G54D20*
G01X41110Y20320D03*
G01X43650Y20320D03*
G01X46190Y20320D03*
G01X48730Y20320D03*
G01X51270Y20320D03*
G01X53810Y20320D03*
G01X56350Y20320D03*
G01X56350Y27940D03*
G01X53810Y27940D03*
G01X51270Y27940D03*
G01X48730Y27940D03*
G01X46190Y27940D03*
G01X43650Y27940D03*
G01X41110Y27940D03*
G01X38570Y27940D03*
G54D15*
G01X104140Y69850D03*
G54D16*
G01X106679Y69850D03*
G54D19*
G01X11901Y20321D03*
G54D20*
G01X14441Y20320D03*
G01X16981Y20320D03*
G01X19521Y20320D03*
G01X22061Y20320D03*
G01X24601Y20320D03*
G01X27141Y20320D03*
G01X29681Y20320D03*
G01X29681Y27940D03*
G01X27141Y27940D03*
G01X24601Y27940D03*
G01X22061Y27940D03*
G01X19521Y27940D03*
G01X16981Y27940D03*
G01X14441Y27940D03*
G01X11901Y27940D03*
G54D15*
G01X104142Y67307D03*
G54D16*
G01X106681Y67308D03*
G54D19*
G01X91908Y101601D03*
G54D20*
G01X94449Y101600D03*
G01X96989Y101600D03*
G01X99529Y101600D03*
G01X102069Y101600D03*
G01X104609Y101600D03*
G01X107149Y101600D03*
G01X109689Y101600D03*
G01X109689Y109220D03*
G01X107149Y109220D03*
G01X104609Y109220D03*
G01X102069Y109220D03*
G01X99529Y109220D03*
G01X96989Y109220D03*
G01X94449Y109220D03*
G01X91909Y109220D03*
G54D15*
G01X104140Y64770D03*
G54D16*
G01X106679Y64770D03*
G54D19*
G01X65241Y101601D03*
G54D20*
G01X67780Y101600D03*
G01X70320Y101600D03*
G01X72860Y101600D03*
G01X75400Y101600D03*
G01X77940Y101600D03*
G01X80480Y101600D03*
G01X83020Y101600D03*
G01X83020Y109220D03*
G01X80480Y109220D03*
G01X77940Y109220D03*
G01X75400Y109220D03*
G01X72860Y109220D03*
G01X70320Y109220D03*
G01X67780Y109220D03*
G01X65240Y109220D03*
G54D15*
G01X104140Y62230D03*
G54D16*
G01X106679Y62230D03*
G54D19*
G01X38571Y101601D03*
G54D20*
G01X41110Y101600D03*
G01X43650Y101600D03*
G01X46190Y101600D03*
G01X48730Y101600D03*
G01X51270Y101600D03*
G01X53810Y101600D03*
G01X56350Y101600D03*
G01X56350Y109220D03*
G01X53810Y109220D03*
G01X51270Y109220D03*
G01X48730Y109220D03*
G01X46190Y109220D03*
G01X43650Y109220D03*
G01X41110Y109220D03*
G01X38570Y109220D03*
G54D15*
G01X104140Y59690D03*
G54D16*
G01X106679Y59690D03*
G54D15*
G01X104140Y57150D03*
G54D16*
G01X106679Y57150D03*
G54D21*
G01X128272Y49527D03*
G01X125732Y50797D03*
G01X128272Y52067D03*
G01X125732Y53337D03*
G01X128272Y54607D03*
G01X125732Y55877D03*
G01X128272Y57147D03*
G01X125732Y58417D03*
G01X128272Y68577D03*
G01X125732Y69847D03*
G01X128272Y71117D03*
G01X125732Y72387D03*
G01X128272Y73657D03*
G01X125732Y74927D03*
G01X128272Y76197D03*
G01X125732Y77467D03*
G01X128272Y87627D03*
G01X125732Y88897D03*
G01X128272Y90167D03*
G01X125732Y91437D03*
G01X128272Y92707D03*
G01X125732Y93977D03*
G01X128272Y95247D03*
G01X125732Y96517D03*
G01X128272Y106677D03*
G01X125732Y107947D03*
G01X128272Y109217D03*
G01X125732Y110487D03*
G01X128272Y111757D03*
G01X125732Y113027D03*
G01X128272Y114297D03*
G01X125732Y115567D03*
G54D17*
G01X113108Y6350D03*
G54D18*
G01X118111Y6348D03*
G54D17*
G01X118112Y123187D03*
G54D18*
G01X113107Y123188D03*
G54D17*
G01X133352Y22860D03*
G54D18*
G01X133351Y27862D03*
G54D22*
G01X135408Y36828D03*
G01X132360Y41730D03*
G54D23*
G01X129414Y36828D03*
G54D16*
G01X126999Y15240D03*
G54D15*
G01X127000Y17780D03*
G54D19*
G01X11901Y101601D03*
G54D20*
G01X14441Y101600D03*
G01X16981Y101600D03*
G01X19521Y101600D03*
G01X22061Y101600D03*
G01X24601Y101600D03*
G01X27141Y101600D03*
G01X29681Y101600D03*
G01X29681Y109220D03*
G01X27141Y109220D03*
G01X24601Y109220D03*
G01X22061Y109220D03*
G01X19521Y109220D03*
G01X16981Y109220D03*
G01X14441Y109220D03*
G01X11901Y109220D03*
G54D16*
G01X109689Y39370D03*
G01X109689Y36830D03*
G01X107149Y39370D03*
G01X107149Y36830D03*
G01X104609Y39370D03*
G01X104609Y36830D03*
G01X102069Y39370D03*
G01X102069Y36830D03*
G01X99529Y39370D03*
G01X99529Y36830D03*
G01X96989Y39370D03*
G01X96989Y36830D03*
G01X94449Y39370D03*
G01X94449Y36830D03*
G01X91909Y39370D03*
G54D15*
G01X91909Y36830D03*
G54D16*
G01X83020Y39370D03*
G01X83020Y36830D03*
G01X80480Y39370D03*
G01X80480Y36830D03*
G01X77940Y39370D03*
G01X77940Y36830D03*
G01X75400Y39370D03*
G01X75400Y36830D03*
G01X72860Y39370D03*
G01X72860Y36830D03*
G01X70320Y39370D03*
G01X70320Y36830D03*
G01X67780Y39370D03*
G01X67780Y36830D03*
G01X65240Y39370D03*
G54D15*
G01X65239Y36830D03*
G54D16*
G01X57149Y39370D03*
G01X57149Y36830D03*
G01X54609Y39370D03*
G01X54609Y36830D03*
G01X52069Y39370D03*
G01X52069Y36830D03*
G01X49529Y39370D03*
G01X49529Y36830D03*
G01X46989Y39370D03*
G01X46989Y36830D03*
G01X44449Y39370D03*
G01X44449Y36830D03*
G01X41909Y39370D03*
G01X41909Y36830D03*
G01X39369Y39370D03*
G54D15*
G01X39370Y36830D03*
G54D16*
G01X29681Y39370D03*
G01X29681Y36830D03*
G01X27141Y39370D03*
G01X27141Y36830D03*
G01X24601Y39370D03*
G01X24601Y36830D03*
G01X22061Y39370D03*
G01X22061Y36830D03*
G01X19521Y39370D03*
G01X19521Y36830D03*
G01X16981Y39370D03*
G01X16981Y36830D03*
G01X14441Y39370D03*
G01X14441Y36830D03*
G01X11901Y39370D03*
G54D15*
G01X11902Y36830D03*
G54D16*
G01X109689Y92710D03*
G01X109689Y90170D03*
G01X107149Y92710D03*
G01X107149Y90170D03*
G01X104609Y92710D03*
G01X104609Y90170D03*
G01X102069Y92710D03*
G01X102069Y90170D03*
G01X99529Y92710D03*
G01X99529Y90170D03*
G01X96989Y92710D03*
G01X96989Y90170D03*
G01X94449Y92710D03*
G01X94449Y90170D03*
G01X91909Y92710D03*
G54D15*
G01X91909Y90170D03*
G54D16*
G01X83020Y92710D03*
G01X83020Y90170D03*
G01X80480Y92710D03*
G01X80480Y90170D03*
G01X77940Y92710D03*
G01X77940Y90170D03*
G01X75400Y92710D03*
G01X75400Y90170D03*
G01X72860Y92710D03*
G01X72860Y90170D03*
G01X70320Y92710D03*
G01X70320Y90170D03*
G01X67780Y92710D03*
G01X67780Y90170D03*
G01X65240Y92710D03*
G54D15*
G01X65239Y90170D03*
G54D16*
G01X56350Y92710D03*
G01X56350Y90170D03*
G01X53810Y92710D03*
G01X53810Y90170D03*
G01X51270Y92710D03*
G01X51270Y90170D03*
G01X48730Y92710D03*
G01X48730Y90170D03*
G01X46190Y92710D03*
G01X46190Y90170D03*
G01X43650Y92710D03*
G01X43650Y90170D03*
G01X41110Y92710D03*
G01X41110Y90170D03*
G01X38570Y92710D03*
G54D15*
G01X38569Y90170D03*
G54D16*
G01X29681Y92710D03*
G01X29681Y90170D03*
G01X27141Y92710D03*
G01X27141Y90170D03*
G01X24601Y92710D03*
G01X24601Y90170D03*
G01X22061Y92710D03*
G01X22061Y90170D03*
G01X19521Y92710D03*
G01X19521Y90170D03*
G01X16981Y92710D03*
G01X16981Y90170D03*
G01X14441Y92710D03*
G01X14441Y90170D03*
G01X11901Y92710D03*
G54D15*
G01X11902Y90170D03*
G54D16*
G01X116839Y58420D03*
G01X114299Y58420D03*
G01X116839Y60960D03*
G01X114299Y60960D03*
G01X116839Y63500D03*
G01X114299Y63500D03*
G01X116839Y66040D03*
G01X114299Y66040D03*
G01X116839Y68580D03*
G01X114299Y68580D03*
G01X116839Y71120D03*
G01X114299Y71120D03*
G01X116839Y73660D03*
G01X114299Y73660D03*
G01X116839Y76200D03*
G54D15*
G01X114300Y76200D03*
G54D24*
G01X83821Y60958D03*
G01X76201Y60958D03*
G01X83819Y57150D03*
G01X76199Y57150D03*
G01X83821Y45718D03*
G01X83821Y53338D03*
G01X80009Y45720D03*
G01X80009Y53340D03*
G01X63501Y57148D03*
G01X55881Y57148D03*
G01X66041Y60958D03*
G01X73661Y60958D03*
G01X55883Y60957D03*
G01X63503Y60957D03*
G01X66043Y57147D03*
G01X73663Y57147D03*
G01X43181Y60958D03*
G01X35561Y60958D03*
G01X45721Y60958D03*
G01X53341Y60958D03*
G01X43181Y57148D03*
G01X35561Y57148D03*
G01X45721Y57148D03*
G01X53341Y57148D03*
G01X22859Y60960D03*
G01X15239Y60960D03*
G01X22859Y57150D03*
G01X15239Y57150D03*
G01X25399Y60960D03*
G01X33019Y60960D03*
G01X25399Y57150D03*
G01X33019Y57150D03*
G01X73659Y64770D03*
G01X73659Y72390D03*
G01X77471Y64768D03*
G01X77471Y72388D03*
G01X66041Y72388D03*
G01X66041Y64768D03*
G01X69851Y72388D03*
G01X69851Y64768D03*
G01X54611Y64768D03*
G01X54611Y72388D03*
G01X58419Y64770D03*
G01X58419Y72390D03*
G01X50799Y72390D03*
G01X50799Y64770D03*
G01X46989Y72390D03*
G01X46989Y64770D03*
G01X39371Y64768D03*
G01X39371Y72388D03*
G01X43181Y64768D03*
G01X43181Y72388D03*
G01X31749Y72390D03*
G01X31749Y64770D03*
G01X27942Y72388D03*
G01X27942Y64768D03*
G01X20319Y64770D03*
G01X20319Y72390D03*
G01X24131Y64768D03*
G01X24131Y72388D03*
G01X16511Y72388D03*
G01X16511Y64768D03*
G01X12699Y72390D03*
G01X12699Y64770D03*
G54D12*
G01X99529Y95346D03*
G01X47805Y97393D03*
G01X21904Y97193D03*
G01X73461Y94932D03*
G01X49933Y43741D03*
G01X70319Y44279D03*
G01X96989Y49443D03*
G01X115391Y48291D03*
G01X124498Y53281D03*
G01X41653Y41508D03*
G01X67779Y95628D03*
G01X42153Y97563D03*
G01X9933Y62717D03*
G01X71455Y70185D03*
G01X8841Y64622D03*
G01X112387Y117045D03*
G01X58420Y89979D03*
G01X32580Y85095D03*
G01X94985Y77332D03*
G01X95255Y61970D03*
G01X65239Y42928D03*
G01X119377Y43347D03*
G01X91010Y86880D03*
G01X65021Y86880D03*
G01X89662Y43350D03*
G01X50553Y94940D03*
G01X74988Y41765D03*
G01X102069Y96583D03*
G01X22062Y43599D03*
G01X81655Y38737D03*
G01X26299Y99199D03*
G01X76410Y96662D03*
G01X25867Y44196D03*
G01X49895Y42943D03*
G01X104089Y42237D03*
G01X105283Y41236D03*
G01X51269Y96126D03*
G01X27142Y44706D03*
G01X48600Y44706D03*
G01X74795Y33995D03*
G01X72097Y63687D03*
G01X52359Y46390D03*
G01X98259Y77383D03*
G01X82633Y42257D03*
G01X46977Y49433D03*
G01X47198Y88569D03*
G01X28196Y47614D03*
G01X71714Y114348D03*
G01X64508Y85676D03*
G01X99679Y23291D03*
G01X101254Y22887D03*
G01X120119Y54381D03*
G01X58996Y18333D03*
G01X54472Y44589D03*
G01X62113Y87800D03*
G01X107746Y85211D03*
G01X112994Y113771D03*
G01X105674Y98473D03*
G01X11399Y88851D03*
G01X63284Y80149D03*
G01X53334Y46299D03*
G01X48729Y104063D03*
G01X55910Y104063D03*
G01X86791Y62847D03*
G01X77083Y82903D03*
G01X36337Y79481D03*
G01X37322Y81615D03*
G01X42984Y26395D03*
G01X19456Y34470D03*
G01X93057Y93350D03*
G01X104775Y99306D03*
G01X81252Y93853D03*
G01X76669Y99956D03*
G01X84086Y97416D03*
G01X15323Y26766D03*
G54D13*
G01X114299Y39370D03*
G01X121920Y86360D03*
G01X118110Y86360D03*
G01X41910Y31750D03*
G01X44078Y31750D03*
G01X55219Y33467D03*
G01X60959Y39370D03*
G01X60959Y34290D03*
G01X35560Y39370D03*
G01X35560Y35560D03*
G01X51468Y35558D03*
G01X132079Y85090D03*
M00*
M02*
