G04 ---------------------------- Layer name :BOTTOM SILK LAYER*
G04 EasyEDA v5.8.22, Thu, 20 Dec 2018 20:30:22 GMT*
G04 f422fc89d8fd4efca302d5ffe9b637f2*
G04 Gerber Generator version 0.2*
G04 Scale: 100 percent, Rotated: No, Reflected: No *
G04 Dimensions in millimeters *
G04 leading zeros omitted , absolute positions ,3 integer and 3 decimal *
%FSLAX33Y33*%
%MOMM*%
G90*
G71D02*

%ADD30C,0.203000*%

%LPD*%
G54D30*
G01X6575Y100330D02*
G01X11348Y100330D01*
G01X6575Y100330D02*
G01X6575Y98285D01*
G01X6804Y97602D01*
G01X7030Y97376D01*
G01X7485Y97147D01*
G01X8168Y97147D01*
G01X8623Y97376D01*
G01X8849Y97602D01*
G01X9077Y98285D01*
G01X9077Y100330D01*
G01X8168Y95648D02*
G01X11348Y95648D01*
G01X9532Y95648D02*
G01X8849Y95420D01*
G01X8394Y94965D01*
G01X8168Y94510D01*
G01X8168Y93830D01*
G01X8168Y91193D02*
G01X8394Y91648D01*
G01X8849Y92103D01*
G01X9532Y92329D01*
G01X9987Y92329D01*
G01X10667Y92103D01*
G01X11122Y91648D01*
G01X11348Y91193D01*
G01X11348Y90513D01*
G01X11122Y90058D01*
G01X10667Y89603D01*
G01X9987Y89375D01*
G01X9532Y89375D01*
G01X8849Y89603D01*
G01X8394Y90058D01*
G01X8168Y90513D01*
G01X8168Y91193D01*
G01X6575Y86967D02*
G01X6804Y86738D01*
G01X6575Y86512D01*
G01X6349Y86738D01*
G01X6575Y86967D01*
G01X8168Y86738D02*
G01X12031Y86738D01*
G01X12712Y86967D01*
G01X12941Y87421D01*
G01X12941Y87876D01*
G01X9532Y85011D02*
G01X9532Y82285D01*
G01X9077Y82285D01*
G01X8623Y82512D01*
G01X8394Y82740D01*
G01X8168Y83195D01*
G01X8168Y83876D01*
G01X8394Y84330D01*
G01X8849Y84785D01*
G01X9532Y85011D01*
G01X9987Y85011D01*
G01X10667Y84785D01*
G01X11122Y84330D01*
G01X11348Y83876D01*
G01X11348Y83195D01*
G01X11122Y82740D01*
G01X10667Y82285D01*
G01X6575Y80784D02*
G01X11348Y80784D01*
G01X8168Y78511D02*
G01X10439Y80784D01*
G01X9532Y79875D02*
G01X11348Y78285D01*
G01X6575Y76103D02*
G01X10439Y76103D01*
G01X11122Y75875D01*
G01X11348Y75420D01*
G01X11348Y74965D01*
G01X8168Y76784D02*
G01X8168Y75194D01*
G01X12941Y73467D02*
G01X12941Y69375D01*
G01X7259Y64693D02*
G01X6804Y65148D01*
G01X6575Y65829D01*
G01X6575Y66738D01*
G01X6804Y67421D01*
G01X7259Y67876D01*
G01X7713Y67876D01*
G01X8168Y67647D01*
G01X8394Y67421D01*
G01X8623Y66967D01*
G01X9077Y65603D01*
G01X9303Y65148D01*
G01X9532Y64922D01*
G01X9987Y64693D01*
G01X10667Y64693D01*
G01X11122Y65148D01*
G01X11348Y65829D01*
G01X11348Y66738D01*
G01X11122Y67421D01*
G01X10667Y67876D01*
G01X6575Y62512D02*
G01X10439Y62512D01*
G01X11122Y62286D01*
G01X11348Y61831D01*
G01X11348Y61376D01*
G01X8168Y63195D02*
G01X8168Y61602D01*
G01X8168Y57147D02*
G01X11348Y57147D01*
G01X8849Y57147D02*
G01X8394Y57602D01*
G01X8168Y58056D01*
G01X8168Y58740D01*
G01X8394Y59194D01*
G01X8849Y59649D01*
G01X9532Y59875D01*
G01X9987Y59875D01*
G01X10667Y59649D01*
G01X11122Y59194D01*
G01X11348Y58740D01*
G01X11348Y58056D01*
G01X11122Y57602D01*
G01X10667Y57147D01*
G01X8168Y55648D02*
G01X11348Y55648D01*
G01X9077Y55648D02*
G01X8394Y54965D01*
G01X8168Y54511D01*
G01X8168Y53830D01*
G01X8394Y53375D01*
G01X9077Y53149D01*
G01X11348Y53149D01*
G01X6575Y48920D02*
G01X11348Y48920D01*
G01X8849Y48920D02*
G01X8394Y49375D01*
G01X8168Y49829D01*
G01X8168Y50513D01*
G01X8394Y50967D01*
G01X8849Y51422D01*
G01X9532Y51648D01*
G01X9987Y51648D01*
G01X10667Y51422D01*
G01X11122Y50967D01*
G01X11348Y50513D01*
G01X11348Y49829D01*
G01X11122Y49375D01*
G01X10667Y48920D01*
G01X8168Y44693D02*
G01X11348Y44693D01*
G01X8849Y44693D02*
G01X8394Y45148D01*
G01X8168Y45603D01*
G01X8168Y46284D01*
G01X8394Y46738D01*
G01X8849Y47193D01*
G01X9532Y47421D01*
G01X9987Y47421D01*
G01X10667Y47193D01*
G01X11122Y46738D01*
G01X11348Y46284D01*
G01X11348Y45603D01*
G01X11122Y45148D01*
G01X10667Y44693D01*
G01X8168Y43195D02*
G01X11348Y43195D01*
G01X9532Y43195D02*
G01X8849Y42966D01*
G01X8394Y42512D01*
G01X8168Y42057D01*
G01X8168Y41376D01*
G01X6575Y37147D02*
G01X11348Y37147D01*
G01X8849Y37147D02*
G01X8394Y37602D01*
G01X8168Y38056D01*
G01X8168Y38740D01*
G01X8394Y39194D01*
G01X8849Y39649D01*
G01X9532Y39875D01*
G01X9987Y39875D01*
G01X10667Y39649D01*
G01X11122Y39194D01*
G01X11348Y38740D01*
G01X11348Y38056D01*
G01X11122Y37602D01*
G01X10667Y37147D01*
G01X6575Y35649D02*
G01X11348Y35649D01*
G01X8849Y35649D02*
G01X8394Y35194D01*
G01X8168Y34739D01*
G01X8168Y34058D01*
G01X8394Y33604D01*
G01X8849Y33149D01*
G01X9532Y32921D01*
G01X9987Y32921D01*
G01X10667Y33149D01*
G01X11122Y33604D01*
G01X11348Y34058D01*
G01X11348Y34739D01*
G01X11122Y35194D01*
G01X10667Y35649D01*
G01X8168Y30284D02*
G01X8394Y30739D01*
G01X8849Y31193D01*
G01X9532Y31422D01*
G01X9987Y31422D01*
G01X10667Y31193D01*
G01X11122Y30739D01*
G01X11348Y30284D01*
G01X11348Y29603D01*
G01X11122Y29149D01*
G01X10667Y28694D01*
G01X9987Y28465D01*
G01X9532Y28465D01*
G01X8849Y28694D01*
G01X8394Y29149D01*
G01X8168Y29603D01*
G01X8168Y30284D01*
G01X8168Y26967D02*
G01X11348Y24467D01*
G01X8168Y24467D02*
G01X11348Y26967D01*
G01X22859Y78740D02*
G01X27632Y78740D01*
G01X22859Y78740D02*
G01X27632Y76921D01*
G01X22859Y75102D02*
G01X27632Y76921D01*
G01X22859Y75102D02*
G01X27632Y75102D01*
G01X22859Y72240D02*
G01X23088Y72694D01*
G01X23543Y73149D01*
G01X23997Y73375D01*
G01X24678Y73604D01*
G01X25816Y73604D01*
G01X26497Y73375D01*
G01X26951Y73149D01*
G01X27406Y72694D01*
G01X27632Y72240D01*
G01X27632Y71330D01*
G01X27406Y70876D01*
G01X26951Y70421D01*
G01X26497Y70195D01*
G01X25816Y69967D01*
G01X24678Y69967D01*
G01X23997Y70195D01*
G01X23543Y70421D01*
G01X23088Y70876D01*
G01X22859Y71330D01*
G01X22859Y72240D01*
G01X22859Y66875D02*
G01X27632Y66875D01*
G01X22859Y68468D02*
G01X22859Y65285D01*
G01X22859Y63784D02*
G01X27632Y63784D01*
G01X22859Y60604D02*
G01X27632Y60604D01*
G01X25133Y63784D02*
G01X25133Y60604D01*
G01X22859Y59103D02*
G01X27632Y59103D01*
G01X22859Y59103D02*
G01X22859Y56149D01*
G01X25133Y59103D02*
G01X25133Y57284D01*
G01X27632Y59103D02*
G01X27632Y56149D01*
G01X22859Y54648D02*
G01X27632Y54648D01*
G01X22859Y54648D02*
G01X22859Y52603D01*
G01X23088Y51922D01*
G01X23314Y51694D01*
G01X23769Y51468D01*
G01X24223Y51468D01*
G01X24678Y51694D01*
G01X24906Y51922D01*
G01X25133Y52603D01*
G01X25133Y54648D01*
G01X25133Y53058D02*
G01X27632Y51468D01*
G01X43047Y78511D02*
G01X42819Y78511D01*
G01X42364Y78285D01*
G01X42138Y78059D01*
G01X41909Y77604D01*
G01X41909Y76695D01*
G01X42138Y76240D01*
G01X42364Y76012D01*
G01X42819Y75786D01*
G01X43273Y75786D01*
G01X43728Y76012D01*
G01X44411Y76466D01*
G01X46682Y78740D01*
G01X46682Y75557D01*
G01X45547Y73830D02*
G01X45773Y74058D01*
G01X46001Y73830D01*
G01X45773Y73604D01*
G01X45547Y73830D01*
G01X41909Y70739D02*
G01X42138Y71422D01*
G01X42819Y71877D01*
G01X43956Y72103D01*
G01X44637Y72103D01*
G01X45773Y71877D01*
G01X46456Y71422D01*
G01X46682Y70739D01*
G01X46682Y70284D01*
G01X46456Y69603D01*
G01X45773Y69149D01*
G01X44637Y68923D01*
G01X43956Y68923D01*
G01X42819Y69149D01*
G01X42138Y69603D01*
G01X41909Y70284D01*
G01X41909Y70739D01*
G01X41909Y67421D02*
G01X46682Y67421D01*
G01X44183Y67421D02*
G01X43728Y66967D01*
G01X43502Y66512D01*
G01X43502Y65831D01*
G01X43728Y65377D01*
G01X44183Y64922D01*
G01X44866Y64693D01*
G01X45318Y64693D01*
G01X46001Y64922D01*
G01X46456Y65377D01*
G01X46682Y65831D01*
G01X46682Y66512D01*
G01X46456Y66967D01*
G01X46001Y67421D01*
G01X44866Y63195D02*
G01X44866Y60467D01*
G01X44411Y60467D01*
G01X43956Y60693D01*
G01X43728Y60922D01*
G01X43502Y61376D01*
G01X43502Y62057D01*
G01X43728Y62512D01*
G01X44183Y62966D01*
G01X44866Y63195D01*
G01X45318Y63195D01*
G01X46001Y62966D01*
G01X46456Y62512D01*
G01X46682Y62057D01*
G01X46682Y61376D01*
G01X46456Y60922D01*
G01X46001Y60467D01*
G01X41909Y58285D02*
G01X45773Y58285D01*
G01X46456Y58059D01*
G01X46682Y57604D01*
G01X46682Y57150D01*
G01X43502Y58966D02*
G01X43502Y57376D01*
G01X43502Y52921D02*
G01X46682Y52921D01*
G01X44183Y52921D02*
G01X43728Y53375D01*
G01X43502Y53830D01*
G01X43502Y54513D01*
G01X43728Y54968D01*
G01X44183Y55422D01*
G01X44866Y55649D01*
G01X45318Y55649D01*
G01X46001Y55422D01*
G01X46456Y54968D01*
G01X46682Y54513D01*
G01X46682Y53830D01*
G01X46456Y53375D01*
G01X46001Y52921D01*
M00*
M02*
