G04 ---------------------------- Layer name :TOP SOLDER LAYER*
G04 EasyEDA v5.8.22, Thu, 20 Dec 2018 20:30:22 GMT*
G04 f422fc89d8fd4efca302d5ffe9b637f2*
G04 Gerber Generator version 0.2*
G04 Scale: 100 percent, Rotated: No, Reflected: No *
G04 Dimensions in millimeters *
G04 leading zeros omitted , absolute positions ,3 integer and 3 decimal *
%FSLAX33Y33*%
%MOMM*%
G90*
G71D02*

%ADD31R,1.498600X1.701800*%
%ADD32R,1.778000X1.778000*%
%ADD33C,1.778000*%
%ADD34R,2.235200X2.235200*%
%ADD35C,2.235200*%
%ADD36R,1.902460X1.902460*%
%ADD37C,1.902460*%
%ADD38R,1.701800X1.498600*%
%ADD39C,3.604260*%
%ADD40C,4.102100*%
%ADD41C,2.082800*%

%LPD*%
G54D31*
G01X93980Y11430D03*
G01X95250Y13970D03*
G01X96520Y11430D03*
G01X97790Y13970D03*
G01X99060Y11430D03*
G01X100330Y13970D03*
G01X101600Y11430D03*
G01X102870Y13970D03*
G54D32*
G01X104140Y74930D03*
G54D33*
G01X106679Y74930D03*
G54D34*
G01X133350Y12700D03*
G54D35*
G01X133349Y17704D03*
G54D36*
G01X67310Y53339D03*
G54D37*
G01X67311Y50798D03*
G01X67311Y48258D03*
G01X67311Y45718D03*
G01X74931Y45718D03*
G01X74931Y48258D03*
G01X74931Y50798D03*
G01X74931Y53338D03*
G54D32*
G01X87632Y78737D03*
G54D33*
G01X90171Y78738D03*
G01X92711Y78738D03*
G01X114299Y55880D03*
G54D32*
G01X116840Y55880D03*
G54D31*
G01X67310Y11430D03*
G01X68580Y13970D03*
G01X69850Y11430D03*
G01X71120Y13970D03*
G01X72390Y11430D03*
G01X73660Y13970D03*
G01X74930Y11430D03*
G01X76200Y13970D03*
G54D36*
G01X49529Y53340D03*
G54D37*
G01X49529Y50800D03*
G01X49529Y48260D03*
G01X49529Y45720D03*
G01X57149Y45720D03*
G01X57149Y48260D03*
G01X57149Y50800D03*
G01X57149Y53340D03*
G54D31*
G01X40640Y11430D03*
G01X41910Y13970D03*
G01X43180Y11430D03*
G01X44450Y13970D03*
G01X45720Y11430D03*
G01X46990Y13970D03*
G01X48260Y11430D03*
G01X49530Y13970D03*
G54D36*
G01X31749Y53340D03*
G54D37*
G01X31749Y50800D03*
G01X31749Y48260D03*
G01X31749Y45720D03*
G01X39369Y45720D03*
G01X39369Y48260D03*
G01X39369Y50800D03*
G01X39369Y53340D03*
G54D31*
G01X13972Y11430D03*
G01X15242Y13970D03*
G01X16512Y11430D03*
G01X17782Y13970D03*
G01X19052Y11430D03*
G01X20322Y13970D03*
G01X21592Y11430D03*
G01X22862Y13970D03*
G54D36*
G01X12700Y53339D03*
G54D37*
G01X12701Y50798D03*
G01X12701Y48258D03*
G01X12701Y45718D03*
G01X20321Y45718D03*
G01X20321Y48258D03*
G01X20321Y50798D03*
G01X20321Y53338D03*
G54D31*
G01X103047Y118110D03*
G01X101777Y115570D03*
G01X100507Y118110D03*
G01X99237Y115570D03*
G01X97967Y118110D03*
G01X96697Y115570D03*
G01X95427Y118110D03*
G01X94157Y115570D03*
G54D36*
G01X74929Y76200D03*
G54D37*
G01X74929Y78740D03*
G01X74929Y81280D03*
G01X74929Y83820D03*
G01X67309Y83820D03*
G01X67309Y81280D03*
G01X67309Y78740D03*
G01X67309Y76200D03*
G54D31*
G01X76377Y118107D03*
G01X75107Y115567D03*
G01X73837Y118107D03*
G01X72567Y115567D03*
G01X71297Y118107D03*
G01X70027Y115567D03*
G01X68757Y118107D03*
G01X67487Y115567D03*
G54D36*
G01X57150Y76199D03*
G54D37*
G01X57151Y78738D03*
G01X57151Y81278D03*
G01X57151Y83818D03*
G01X49531Y83818D03*
G01X49531Y81278D03*
G01X49531Y78738D03*
G01X49531Y76198D03*
G54D31*
G01X49707Y118110D03*
G01X48437Y115570D03*
G01X47167Y118110D03*
G01X45897Y115570D03*
G01X44627Y118110D03*
G01X43357Y115570D03*
G01X42087Y118110D03*
G01X40817Y115570D03*
G54D36*
G01X39370Y76199D03*
G54D37*
G01X39371Y78738D03*
G01X39371Y81278D03*
G01X39371Y83818D03*
G01X31751Y83818D03*
G01X31751Y81278D03*
G01X31751Y78738D03*
G01X31751Y76198D03*
G54D31*
G01X23040Y118110D03*
G01X21770Y115570D03*
G01X20500Y118110D03*
G01X19230Y115570D03*
G01X17960Y118110D03*
G01X16690Y115570D03*
G01X15420Y118110D03*
G01X14150Y115570D03*
G54D36*
G01X20320Y76199D03*
G54D37*
G01X20321Y78738D03*
G01X20321Y81278D03*
G01X20321Y83818D03*
G01X12701Y83818D03*
G01X12701Y81278D03*
G01X12701Y78738D03*
G01X12701Y76198D03*
G54D32*
G01X87632Y69847D03*
G54D33*
G01X90171Y69848D03*
G01X92711Y69848D03*
G54D32*
G01X87632Y60957D03*
G54D33*
G01X90173Y60957D03*
G01X92713Y60957D03*
G54D32*
G01X87630Y52070D03*
G54D33*
G01X90169Y52070D03*
G01X92709Y52070D03*
G01X117400Y114300D03*
G54D32*
G01X119941Y114300D03*
G54D33*
G01X117400Y111758D03*
G54D32*
G01X119941Y111757D03*
G54D33*
G01X120649Y17780D03*
G54D32*
G01X123190Y17780D03*
G54D33*
G01X120649Y15238D03*
G54D32*
G01X123190Y15240D03*
G54D36*
G01X91908Y20321D03*
G54D37*
G01X94449Y20320D03*
G01X96989Y20320D03*
G01X99529Y20320D03*
G01X102069Y20320D03*
G01X104609Y20320D03*
G01X107149Y20320D03*
G01X109689Y20320D03*
G01X109689Y27940D03*
G01X107149Y27940D03*
G01X104609Y27940D03*
G01X102069Y27940D03*
G01X99529Y27940D03*
G01X96989Y27940D03*
G01X94449Y27940D03*
G01X91909Y27940D03*
G54D36*
G01X65241Y20321D03*
G54D37*
G01X67780Y20320D03*
G01X70320Y20320D03*
G01X72860Y20320D03*
G01X75400Y20320D03*
G01X77940Y20320D03*
G01X80480Y20320D03*
G01X83020Y20320D03*
G01X83020Y27940D03*
G01X80480Y27940D03*
G01X77940Y27940D03*
G01X75400Y27940D03*
G01X72860Y27940D03*
G01X70320Y27940D03*
G01X67780Y27940D03*
G01X65240Y27940D03*
G54D32*
G01X104140Y72390D03*
G54D33*
G01X106679Y72390D03*
G54D36*
G01X38571Y20321D03*
G54D37*
G01X41110Y20320D03*
G01X43650Y20320D03*
G01X46190Y20320D03*
G01X48730Y20320D03*
G01X51270Y20320D03*
G01X53810Y20320D03*
G01X56350Y20320D03*
G01X56350Y27940D03*
G01X53810Y27940D03*
G01X51270Y27940D03*
G01X48730Y27940D03*
G01X46190Y27940D03*
G01X43650Y27940D03*
G01X41110Y27940D03*
G01X38570Y27940D03*
G54D32*
G01X104140Y69850D03*
G54D33*
G01X106679Y69850D03*
G54D36*
G01X11901Y20321D03*
G54D37*
G01X14441Y20320D03*
G01X16981Y20320D03*
G01X19521Y20320D03*
G01X22061Y20320D03*
G01X24601Y20320D03*
G01X27141Y20320D03*
G01X29681Y20320D03*
G01X29681Y27940D03*
G01X27141Y27940D03*
G01X24601Y27940D03*
G01X22061Y27940D03*
G01X19521Y27940D03*
G01X16981Y27940D03*
G01X14441Y27940D03*
G01X11901Y27940D03*
G54D32*
G01X104142Y67307D03*
G54D33*
G01X106681Y67308D03*
G54D36*
G01X91908Y101601D03*
G54D37*
G01X94449Y101600D03*
G01X96989Y101600D03*
G01X99529Y101600D03*
G01X102069Y101600D03*
G01X104609Y101600D03*
G01X107149Y101600D03*
G01X109689Y101600D03*
G01X109689Y109220D03*
G01X107149Y109220D03*
G01X104609Y109220D03*
G01X102069Y109220D03*
G01X99529Y109220D03*
G01X96989Y109220D03*
G01X94449Y109220D03*
G01X91909Y109220D03*
G54D32*
G01X104140Y64770D03*
G54D33*
G01X106679Y64770D03*
G54D36*
G01X65241Y101601D03*
G54D37*
G01X67780Y101600D03*
G01X70320Y101600D03*
G01X72860Y101600D03*
G01X75400Y101600D03*
G01X77940Y101600D03*
G01X80480Y101600D03*
G01X83020Y101600D03*
G01X83020Y109220D03*
G01X80480Y109220D03*
G01X77940Y109220D03*
G01X75400Y109220D03*
G01X72860Y109220D03*
G01X70320Y109220D03*
G01X67780Y109220D03*
G01X65240Y109220D03*
G54D32*
G01X104140Y62230D03*
G54D33*
G01X106679Y62230D03*
G54D36*
G01X38571Y101601D03*
G54D37*
G01X41110Y101600D03*
G01X43650Y101600D03*
G01X46190Y101600D03*
G01X48730Y101600D03*
G01X51270Y101600D03*
G01X53810Y101600D03*
G01X56350Y101600D03*
G01X56350Y109220D03*
G01X53810Y109220D03*
G01X51270Y109220D03*
G01X48730Y109220D03*
G01X46190Y109220D03*
G01X43650Y109220D03*
G01X41110Y109220D03*
G01X38570Y109220D03*
G54D32*
G01X104140Y59690D03*
G54D33*
G01X106679Y59690D03*
G54D32*
G01X104140Y57150D03*
G54D33*
G01X106679Y57150D03*
G54D38*
G01X128272Y49527D03*
G01X125732Y50797D03*
G01X128272Y52067D03*
G01X125732Y53337D03*
G01X128272Y54607D03*
G01X125732Y55877D03*
G01X128272Y57147D03*
G01X125732Y58417D03*
G01X128272Y68577D03*
G01X125732Y69847D03*
G01X128272Y71117D03*
G01X125732Y72387D03*
G01X128272Y73657D03*
G01X125732Y74927D03*
G01X128272Y76197D03*
G01X125732Y77467D03*
G01X128272Y87627D03*
G01X125732Y88897D03*
G01X128272Y90167D03*
G01X125732Y91437D03*
G01X128272Y92707D03*
G01X125732Y93977D03*
G01X128272Y95247D03*
G01X125732Y96517D03*
G01X128272Y106677D03*
G01X125732Y107947D03*
G01X128272Y109217D03*
G01X125732Y110487D03*
G01X128272Y111757D03*
G01X125732Y113027D03*
G01X128272Y114297D03*
G01X125732Y115567D03*
G54D34*
G01X113108Y6350D03*
G54D35*
G01X118111Y6348D03*
G54D34*
G01X118112Y123187D03*
G54D35*
G01X113107Y123188D03*
G54D34*
G01X133352Y22860D03*
G54D35*
G01X133351Y27862D03*
G54D39*
G01X135408Y36828D03*
G01X132360Y41730D03*
G54D40*
G01X129414Y36828D03*
G54D33*
G01X126999Y15240D03*
G54D32*
G01X127000Y17780D03*
G54D36*
G01X11901Y101601D03*
G54D37*
G01X14441Y101600D03*
G01X16981Y101600D03*
G01X19521Y101600D03*
G01X22061Y101600D03*
G01X24601Y101600D03*
G01X27141Y101600D03*
G01X29681Y101600D03*
G01X29681Y109220D03*
G01X27141Y109220D03*
G01X24601Y109220D03*
G01X22061Y109220D03*
G01X19521Y109220D03*
G01X16981Y109220D03*
G01X14441Y109220D03*
G01X11901Y109220D03*
G54D33*
G01X109689Y39370D03*
G01X109689Y36830D03*
G01X107149Y39370D03*
G01X107149Y36830D03*
G01X104609Y39370D03*
G01X104609Y36830D03*
G01X102069Y39370D03*
G01X102069Y36830D03*
G01X99529Y39370D03*
G01X99529Y36830D03*
G01X96989Y39370D03*
G01X96989Y36830D03*
G01X94449Y39370D03*
G01X94449Y36830D03*
G01X91909Y39370D03*
G54D32*
G01X91909Y36830D03*
G54D33*
G01X83020Y39370D03*
G01X83020Y36830D03*
G01X80480Y39370D03*
G01X80480Y36830D03*
G01X77940Y39370D03*
G01X77940Y36830D03*
G01X75400Y39370D03*
G01X75400Y36830D03*
G01X72860Y39370D03*
G01X72860Y36830D03*
G01X70320Y39370D03*
G01X70320Y36830D03*
G01X67780Y39370D03*
G01X67780Y36830D03*
G01X65240Y39370D03*
G54D32*
G01X65239Y36830D03*
G54D33*
G01X57149Y39370D03*
G01X57149Y36830D03*
G01X54609Y39370D03*
G01X54609Y36830D03*
G01X52069Y39370D03*
G01X52069Y36830D03*
G01X49529Y39370D03*
G01X49529Y36830D03*
G01X46989Y39370D03*
G01X46989Y36830D03*
G01X44449Y39370D03*
G01X44449Y36830D03*
G01X41909Y39370D03*
G01X41909Y36830D03*
G01X39369Y39370D03*
G54D32*
G01X39370Y36830D03*
G54D33*
G01X29681Y39370D03*
G01X29681Y36830D03*
G01X27141Y39370D03*
G01X27141Y36830D03*
G01X24601Y39370D03*
G01X24601Y36830D03*
G01X22061Y39370D03*
G01X22061Y36830D03*
G01X19521Y39370D03*
G01X19521Y36830D03*
G01X16981Y39370D03*
G01X16981Y36830D03*
G01X14441Y39370D03*
G01X14441Y36830D03*
G01X11901Y39370D03*
G54D32*
G01X11902Y36830D03*
G54D33*
G01X109689Y92710D03*
G01X109689Y90170D03*
G01X107149Y92710D03*
G01X107149Y90170D03*
G01X104609Y92710D03*
G01X104609Y90170D03*
G01X102069Y92710D03*
G01X102069Y90170D03*
G01X99529Y92710D03*
G01X99529Y90170D03*
G01X96989Y92710D03*
G01X96989Y90170D03*
G01X94449Y92710D03*
G01X94449Y90170D03*
G01X91909Y92710D03*
G54D32*
G01X91909Y90170D03*
G54D33*
G01X83020Y92710D03*
G01X83020Y90170D03*
G01X80480Y92710D03*
G01X80480Y90170D03*
G01X77940Y92710D03*
G01X77940Y90170D03*
G01X75400Y92710D03*
G01X75400Y90170D03*
G01X72860Y92710D03*
G01X72860Y90170D03*
G01X70320Y92710D03*
G01X70320Y90170D03*
G01X67780Y92710D03*
G01X67780Y90170D03*
G01X65240Y92710D03*
G54D32*
G01X65239Y90170D03*
G54D33*
G01X56350Y92710D03*
G01X56350Y90170D03*
G01X53810Y92710D03*
G01X53810Y90170D03*
G01X51270Y92710D03*
G01X51270Y90170D03*
G01X48730Y92710D03*
G01X48730Y90170D03*
G01X46190Y92710D03*
G01X46190Y90170D03*
G01X43650Y92710D03*
G01X43650Y90170D03*
G01X41110Y92710D03*
G01X41110Y90170D03*
G01X38570Y92710D03*
G54D32*
G01X38569Y90170D03*
G54D33*
G01X29681Y92710D03*
G01X29681Y90170D03*
G01X27141Y92710D03*
G01X27141Y90170D03*
G01X24601Y92710D03*
G01X24601Y90170D03*
G01X22061Y92710D03*
G01X22061Y90170D03*
G01X19521Y92710D03*
G01X19521Y90170D03*
G01X16981Y92710D03*
G01X16981Y90170D03*
G01X14441Y92710D03*
G01X14441Y90170D03*
G01X11901Y92710D03*
G54D32*
G01X11902Y90170D03*
G54D33*
G01X116839Y58420D03*
G01X114299Y58420D03*
G01X116839Y60960D03*
G01X114299Y60960D03*
G01X116839Y63500D03*
G01X114299Y63500D03*
G01X116839Y66040D03*
G01X114299Y66040D03*
G01X116839Y68580D03*
G01X114299Y68580D03*
G01X116839Y71120D03*
G01X114299Y71120D03*
G01X116839Y73660D03*
G01X114299Y73660D03*
G01X116839Y76200D03*
G54D32*
G01X114300Y76200D03*
G54D41*
G01X83821Y60958D03*
G01X76201Y60958D03*
G01X83819Y57150D03*
G01X76199Y57150D03*
G01X83821Y45718D03*
G01X83821Y53338D03*
G01X80009Y45720D03*
G01X80009Y53340D03*
G01X63501Y57148D03*
G01X55881Y57148D03*
G01X66041Y60958D03*
G01X73661Y60958D03*
G01X55883Y60957D03*
G01X63503Y60957D03*
G01X66043Y57147D03*
G01X73663Y57147D03*
G01X43181Y60958D03*
G01X35561Y60958D03*
G01X45721Y60958D03*
G01X53341Y60958D03*
G01X43181Y57148D03*
G01X35561Y57148D03*
G01X45721Y57148D03*
G01X53341Y57148D03*
G01X22859Y60960D03*
G01X15239Y60960D03*
G01X22859Y57150D03*
G01X15239Y57150D03*
G01X25399Y60960D03*
G01X33019Y60960D03*
G01X25399Y57150D03*
G01X33019Y57150D03*
G01X73659Y64770D03*
G01X73659Y72390D03*
G01X77471Y64768D03*
G01X77471Y72388D03*
G01X66041Y72388D03*
G01X66041Y64768D03*
G01X69851Y72388D03*
G01X69851Y64768D03*
G01X54611Y64768D03*
G01X54611Y72388D03*
G01X58419Y64770D03*
G01X58419Y72390D03*
G01X50799Y72390D03*
G01X50799Y64770D03*
G01X46989Y72390D03*
G01X46989Y64770D03*
G01X39371Y64768D03*
G01X39371Y72388D03*
G01X43181Y64768D03*
G01X43181Y72388D03*
G01X31749Y72390D03*
G01X31749Y64770D03*
G01X27942Y72388D03*
G01X27942Y64768D03*
G01X20319Y64770D03*
G01X20319Y72390D03*
G01X24131Y64768D03*
G01X24131Y72388D03*
G01X16511Y72388D03*
G01X16511Y64768D03*
G01X12699Y72390D03*
G01X12699Y64770D03*
M00*
M02*
