;NPTH Drill file created by EasyEDA 
M48
METRIC,LZ,000.000
;Holesize 1 = 2.600 METRIC
T01C2.600
;Holesize 2 = 2.750 METRIC
T02C2.750
;Holesize 3 = 3.200 METRIC
T03C3.200
%
G05
G90
T01
X+134620Y+005080
X+134621Y+124458
X+005079Y+124460
X+005079Y+005080
X+062226Y+066041
T02
X+061213Y+096901
X+119125Y+096901
X+119125Y+047879
X+061213Y+047879
T03
X+104139Y+005080
X+092709Y+005080
X+077470Y+005080
X+066040Y+005080
X+050801Y+005080
X+039371Y+005080
X+024131Y+005078
X+012701Y+005078
X+092887Y+124460
X+104317Y+124460
X+066218Y+124458
X+077648Y+124458
X+039548Y+124460
X+050978Y+124460
X+012879Y+124460
X+024309Y+124460
X+134621Y+059688
X+134621Y+048258
X+134621Y+078738
X+134621Y+067308
X+134621Y+097788
X+134621Y+086358
X+134621Y+116838
X+134621Y+105408
M30
