;PTH Drill file created by EasyEDA 
M48
METRIC,LZ,000.000
;Holesize 1 = 0.305 METRIC
T01C0.305
;Holesize 2 = 0.310 METRIC
T02C0.310
;Holesize 3 = 0.889 METRIC
T03C0.889
;Holesize 4 = 0.900 METRIC
T04C0.900
;Holesize 5 = 0.915 METRIC
T05C0.915
;Holesize 6 = 1.001 METRIC
T06C1.001
;Holesize 7 = 1.301 METRIC
T07C1.301
;Holesize 8 = 3.003 METRIC
T08C3.003
;Holesize 9 = 3.501 METRIC
T09C3.501
%
G05
G90
T01
X+114299Y+039370
X+121920Y+086360
X+118110Y+086360
X+041910Y+031750
X+044078Y+031750
X+055219Y+033467
X+060959Y+039370
X+060959Y+034290
X+035560Y+039370
X+035560Y+035560
X+051468Y+035558
X+132079Y+085090
T02
X+099529Y+095346
X+047805Y+097393
X+021904Y+097193
X+073461Y+094932
X+049933Y+043741
X+070319Y+044279
X+096989Y+049443
X+115391Y+048291
X+124498Y+053281
X+041653Y+041508
X+067779Y+095628
X+042153Y+097563
X+009933Y+062717
X+071455Y+070185
X+008841Y+064622
X+112387Y+117045
X+058420Y+089979
X+032580Y+085095
X+094985Y+077332
X+095255Y+061970
X+065239Y+042928
X+119377Y+043347
X+091010Y+086880
X+065021Y+086880
X+089662Y+043350
X+050553Y+094940
X+074988Y+041765
X+102069Y+096583
X+022062Y+043599
X+081655Y+038737
X+026299Y+099199
X+076410Y+096662
X+025867Y+044196
X+049895Y+042943
X+104089Y+042237
X+105283Y+041236
X+051269Y+096126
X+027142Y+044706
X+048600Y+044706
X+074795Y+033995
X+072097Y+063687
X+052359Y+046390
X+098259Y+077383
X+082633Y+042257
X+046977Y+049433
X+047198Y+088569
X+028196Y+047614
X+071714Y+114348
X+064508Y+085676
X+099679Y+023291
X+101254Y+022887
X+120119Y+054381
X+058996Y+018333
X+054472Y+044589
X+062113Y+087800
X+107746Y+085211
X+112994Y+113771
X+105674Y+098473
X+011399Y+088851
X+063284Y+080149
X+053334Y+046299
X+048729Y+104063
X+055910Y+104063
X+086791Y+062847
X+077083Y+082903
X+036337Y+079481
X+037322Y+081615
X+042984Y+026395
X+019456Y+034470
X+093057Y+093350
X+104775Y+099306
X+081252Y+093853
X+076669Y+099956
X+084086Y+097416
X+015323Y+026766
T03
X+104140Y+074930
X+106679Y+074930
X+087632Y+078737
X+090171Y+078738
X+092711Y+078738
X+114299Y+055880
X+116840Y+055880
X+087632Y+069847
X+090171Y+069848
X+092711Y+069848
X+087632Y+060957
X+090173Y+060957
X+092713Y+060957
X+087630Y+052070
X+090169Y+052070
X+092709Y+052070
X+117400Y+114300
X+119941Y+114300
X+117400Y+111758
X+119941Y+111757
X+120649Y+017780
X+123190Y+017780
X+120649Y+015238
X+123190Y+015240
X+104140Y+072390
X+106679Y+072390
X+104140Y+069850
X+106679Y+069850
X+104142Y+067307
X+106681Y+067308
X+104140Y+064770
X+106679Y+064770
X+104140Y+062230
X+106679Y+062230
X+104140Y+059690
X+106679Y+059690
X+104140Y+057150
X+106679Y+057150
X+126999Y+015240
X+127000Y+017780
X+109689Y+039370
X+109689Y+036830
X+107149Y+039370
X+107149Y+036830
X+104609Y+039370
X+104609Y+036830
X+102069Y+039370
X+102069Y+036830
X+099529Y+039370
X+099529Y+036830
X+096989Y+039370
X+096989Y+036830
X+094449Y+039370
X+094449Y+036830
X+091909Y+039370
X+091909Y+036830
X+083020Y+039370
X+083020Y+036830
X+080480Y+039370
X+080480Y+036830
X+077940Y+039370
X+077940Y+036830
X+075400Y+039370
X+075400Y+036830
X+072860Y+039370
X+072860Y+036830
X+070320Y+039370
X+070320Y+036830
X+067780Y+039370
X+067780Y+036830
X+065240Y+039370
X+065239Y+036830
X+057149Y+039370
X+057149Y+036830
X+054609Y+039370
X+054609Y+036830
X+052069Y+039370
X+052069Y+036830
X+049529Y+039370
X+049529Y+036830
X+046989Y+039370
X+046989Y+036830
X+044449Y+039370
X+044449Y+036830
X+041909Y+039370
X+041909Y+036830
X+039369Y+039370
X+039370Y+036830
X+029681Y+039370
X+029681Y+036830
X+027141Y+039370
X+027141Y+036830
X+024601Y+039370
X+024601Y+036830
X+022061Y+039370
X+022061Y+036830
X+019521Y+039370
X+019521Y+036830
X+016981Y+039370
X+016981Y+036830
X+014441Y+039370
X+014441Y+036830
X+011901Y+039370
X+011902Y+036830
X+109689Y+092710
X+109689Y+090170
X+107149Y+092710
X+107149Y+090170
X+104609Y+092710
X+104609Y+090170
X+102069Y+092710
X+102069Y+090170
X+099529Y+092710
X+099529Y+090170
X+096989Y+092710
X+096989Y+090170
X+094449Y+092710
X+094449Y+090170
X+091909Y+092710
X+091909Y+090170
X+083020Y+092710
X+083020Y+090170
X+080480Y+092710
X+080480Y+090170
X+077940Y+092710
X+077940Y+090170
X+075400Y+092710
X+075400Y+090170
X+072860Y+092710
X+072860Y+090170
X+070320Y+092710
X+070320Y+090170
X+067780Y+092710
X+067780Y+090170
X+065240Y+092710
X+065239Y+090170
X+056350Y+092710
X+056350Y+090170
X+053810Y+092710
X+053810Y+090170
X+051270Y+092710
X+051270Y+090170
X+048730Y+092710
X+048730Y+090170
X+046190Y+092710
X+046190Y+090170
X+043650Y+092710
X+043650Y+090170
X+041110Y+092710
X+041110Y+090170
X+038570Y+092710
X+038569Y+090170
X+029681Y+092710
X+029681Y+090170
X+027141Y+092710
X+027141Y+090170
X+024601Y+092710
X+024601Y+090170
X+022061Y+092710
X+022061Y+090170
X+019521Y+092710
X+019521Y+090170
X+016981Y+092710
X+016981Y+090170
X+014441Y+092710
X+014441Y+090170
X+011901Y+092710
X+011902Y+090170
X+116839Y+058420
X+114299Y+058420
X+116839Y+060960
X+114299Y+060960
X+116839Y+063500
X+114299Y+063500
X+116839Y+066040
X+114299Y+066040
X+116839Y+068580
X+114299Y+068580
X+116839Y+071120
X+114299Y+071120
X+116839Y+073660
X+114299Y+073660
X+116839Y+076200
X+114300Y+076200
T04
X+083821Y+060958
X+076201Y+060958
X+083819Y+057150
X+076199Y+057150
X+083821Y+045718
X+083821Y+053338
X+080009Y+045720
X+080009Y+053340
X+063501Y+057148
X+055881Y+057148
X+066041Y+060958
X+073661Y+060958
X+055883Y+060957
X+063503Y+060957
X+066043Y+057147
X+073663Y+057147
X+043181Y+060958
X+035561Y+060958
X+045721Y+060958
X+053341Y+060958
X+043181Y+057148
X+035561Y+057148
X+045721Y+057148
X+053341Y+057148
X+022859Y+060960
X+015239Y+060960
X+022859Y+057150
X+015239Y+057150
X+025399Y+060960
X+033019Y+060960
X+025399Y+057150
X+033019Y+057150
X+073659Y+064770
X+073659Y+072390
X+077471Y+064768
X+077471Y+072388
X+066041Y+072388
X+066041Y+064768
X+069851Y+072388
X+069851Y+064768
X+054611Y+064768
X+054611Y+072388
X+058419Y+064770
X+058419Y+072390
X+050799Y+072390
X+050799Y+064770
X+046989Y+072390
X+046989Y+064770
X+039371Y+064768
X+039371Y+072388
X+043181Y+064768
X+043181Y+072388
X+031749Y+072390
X+031749Y+064770
X+027942Y+072388
X+027942Y+064768
X+020319Y+064770
X+020319Y+072390
X+024131Y+064768
X+024131Y+072388
X+016511Y+072388
X+016511Y+064768
X+012699Y+072390
X+012699Y+064770
T05
X+093980Y+011430
X+095250Y+013970
X+096520Y+011430
X+097790Y+013970
X+099060Y+011430
X+100330Y+013970
X+101600Y+011430
X+102870Y+013970
X+067310Y+011430
X+068580Y+013970
X+069850Y+011430
X+071120Y+013970
X+072390Y+011430
X+073660Y+013970
X+074930Y+011430
X+076200Y+013970
X+040640Y+011430
X+041910Y+013970
X+043180Y+011430
X+044450Y+013970
X+045720Y+011430
X+046990Y+013970
X+048260Y+011430
X+049530Y+013970
X+013972Y+011430
X+015242Y+013970
X+016512Y+011430
X+017782Y+013970
X+019052Y+011430
X+020322Y+013970
X+021592Y+011430
X+022862Y+013970
X+103047Y+118110
X+101777Y+115570
X+100507Y+118110
X+099237Y+115570
X+097967Y+118110
X+096697Y+115570
X+095427Y+118110
X+094157Y+115570
X+076377Y+118107
X+075107Y+115567
X+073837Y+118107
X+072567Y+115567
X+071297Y+118107
X+070027Y+115567
X+068757Y+118107
X+067487Y+115567
X+049707Y+118110
X+048437Y+115570
X+047167Y+118110
X+045897Y+115570
X+044627Y+118110
X+043357Y+115570
X+042087Y+118110
X+040817Y+115570
X+023040Y+118110
X+021770Y+115570
X+020500Y+118110
X+019230Y+115570
X+017960Y+118110
X+016690Y+115570
X+015420Y+118110
X+014150Y+115570
X+128272Y+049527
X+125732Y+050797
X+128272Y+052067
X+125732Y+053337
X+128272Y+054607
X+125732Y+055877
X+128272Y+057147
X+125732Y+058417
X+128272Y+068577
X+125732Y+069847
X+128272Y+071117
X+125732Y+072387
X+128272Y+073657
X+125732Y+074927
X+128272Y+076197
X+125732Y+077467
X+128272Y+087627
X+125732Y+088897
X+128272Y+090167
X+125732Y+091437
X+128272Y+092707
X+125732Y+093977
X+128272Y+095247
X+125732Y+096517
X+128272Y+106677
X+125732Y+107947
X+128272Y+109217
X+125732Y+110487
X+128272Y+111757
X+125732Y+113027
X+128272Y+114297
X+125732Y+115567
T06
X+067310Y+053339
X+067311Y+050798
X+067311Y+048258
X+067311Y+045718
X+074931Y+045718
X+074931Y+048258
X+074931Y+050798
X+074931Y+053338
X+049529Y+053340
X+049529Y+050800
X+049529Y+048260
X+049529Y+045720
X+057149Y+045720
X+057149Y+048260
X+057149Y+050800
X+057149Y+053340
X+031749Y+053340
X+031749Y+050800
X+031749Y+048260
X+031749Y+045720
X+039369Y+045720
X+039369Y+048260
X+039369Y+050800
X+039369Y+053340
X+012700Y+053339
X+012701Y+050798
X+012701Y+048258
X+012701Y+045718
X+020321Y+045718
X+020321Y+048258
X+020321Y+050798
X+020321Y+053338
X+074929Y+076200
X+074929Y+078740
X+074929Y+081280
X+074929Y+083820
X+067309Y+083820
X+067309Y+081280
X+067309Y+078740
X+067309Y+076200
X+057150Y+076199
X+057151Y+078738
X+057151Y+081278
X+057151Y+083818
X+049531Y+083818
X+049531Y+081278
X+049531Y+078738
X+049531Y+076198
X+039370Y+076199
X+039371Y+078738
X+039371Y+081278
X+039371Y+083818
X+031751Y+083818
X+031751Y+081278
X+031751Y+078738
X+031751Y+076198
X+020320Y+076199
X+020321Y+078738
X+020321Y+081278
X+020321Y+083818
X+012701Y+083818
X+012701Y+081278
X+012701Y+078738
X+012701Y+076198
X+091908Y+020321
X+094449Y+020320
X+096989Y+020320
X+099529Y+020320
X+102069Y+020320
X+104609Y+020320
X+107149Y+020320
X+109689Y+020320
X+109689Y+027940
X+107149Y+027940
X+104609Y+027940
X+102069Y+027940
X+099529Y+027940
X+096989Y+027940
X+094449Y+027940
X+091909Y+027940
X+065241Y+020321
X+067780Y+020320
X+070320Y+020320
X+072860Y+020320
X+075400Y+020320
X+077940Y+020320
X+080480Y+020320
X+083020Y+020320
X+083020Y+027940
X+080480Y+027940
X+077940Y+027940
X+075400Y+027940
X+072860Y+027940
X+070320Y+027940
X+067780Y+027940
X+065240Y+027940
X+038571Y+020321
X+041110Y+020320
X+043650Y+020320
X+046190Y+020320
X+048730Y+020320
X+051270Y+020320
X+053810Y+020320
X+056350Y+020320
X+056350Y+027940
X+053810Y+027940
X+051270Y+027940
X+048730Y+027940
X+046190Y+027940
X+043650Y+027940
X+041110Y+027940
X+038570Y+027940
X+011901Y+020321
X+014441Y+020320
X+016981Y+020320
X+019521Y+020320
X+022061Y+020320
X+024601Y+020320
X+027141Y+020320
X+029681Y+020320
X+029681Y+027940
X+027141Y+027940
X+024601Y+027940
X+022061Y+027940
X+019521Y+027940
X+016981Y+027940
X+014441Y+027940
X+011901Y+027940
X+091908Y+101601
X+094449Y+101600
X+096989Y+101600
X+099529Y+101600
X+102069Y+101600
X+104609Y+101600
X+107149Y+101600
X+109689Y+101600
X+109689Y+109220
X+107149Y+109220
X+104609Y+109220
X+102069Y+109220
X+099529Y+109220
X+096989Y+109220
X+094449Y+109220
X+091909Y+109220
X+065241Y+101601
X+067780Y+101600
X+070320Y+101600
X+072860Y+101600
X+075400Y+101600
X+077940Y+101600
X+080480Y+101600
X+083020Y+101600
X+083020Y+109220
X+080480Y+109220
X+077940Y+109220
X+075400Y+109220
X+072860Y+109220
X+070320Y+109220
X+067780Y+109220
X+065240Y+109220
X+038571Y+101601
X+041110Y+101600
X+043650Y+101600
X+046190Y+101600
X+048730Y+101600
X+051270Y+101600
X+053810Y+101600
X+056350Y+101600
X+056350Y+109220
X+053810Y+109220
X+051270Y+109220
X+048730Y+109220
X+046190Y+109220
X+043650Y+109220
X+041110Y+109220
X+038570Y+109220
X+011901Y+101601
X+014441Y+101600
X+016981Y+101600
X+019521Y+101600
X+022061Y+101600
X+024601Y+101600
X+027141Y+101600
X+029681Y+101600
X+029681Y+109220
X+027141Y+109220
X+024601Y+109220
X+022061Y+109220
X+019521Y+109220
X+016981Y+109220
X+014441Y+109220
X+011901Y+109220
T07
X+133350Y+012700
X+133349Y+017704
X+113108Y+006350
X+118111Y+006348
X+118112Y+123187
X+113107Y+123188
X+133352Y+022860
X+133351Y+027862
T08
X+135408Y+036828
X+132360Y+041730
T09
X+129414Y+036828
M30
